<svg width="1440" height="578" viewBox="0 0 1440 578" fill="none" xmlns="http://www.w3.org/2000/svg">
<mask id="mask0_785_13960" style="mask-type:alpha" maskUnits="userSpaceOnUse" x="0" y="0" width="1440" height="578">
<rect width="1440" height="578" fill="#D9D9D9"/>
</mask>
<g mask="url(#mask0_785_13960)">
<circle cx="719.935" cy="1916.74" r="1913.25" transform="rotate(44.4569 719.935 1916.74)" stroke="#B59C75" stroke-width="3"/>
<circle cx="719.76" cy="1898.57" r="1876.99" transform="rotate(36.2843 719.76 1898.57)" stroke="#B59C75" stroke-width="2"/>
<mask id="path-4-inside-1_785_13960" fill="white">
<path fill-rule="evenodd" clip-rule="evenodd" d="M1847.16 467.695C1036.31 -154.729 -125.595 -1.9745 -748.019 808.881C-1370.44 1619.74 -1217.69 2781.64 -406.833 3404.06C404.023 4026.49 1565.93 3873.73 2188.35 3062.88C2810.77 2252.02 2658.02 1090.12 1847.16 467.695ZM1847.77 466.902C1036.48 -155.858 -126.052 -3.02152 -748.812 808.272C-1371.57 1619.57 -1218.74 2782.1 -407.442 3404.86C403.852 4027.62 1566.38 3874.78 2189.14 3063.49C2811.9 2252.19 2659.07 1089.66 1847.77 466.902Z"/>
</mask>
<path d="M-748.019 808.881L-749.605 807.663L-748.019 808.881ZM1847.16 467.695L1845.94 469.281L1847.16 467.695ZM2188.35 3062.88L2186.76 3061.66L2188.35 3062.88ZM-748.812 808.272L-750.398 807.054L-748.812 808.272ZM1847.77 466.902L1846.55 468.488L1847.77 466.902ZM-407.442 3404.86L-406.224 3403.27L-407.442 3404.86ZM2189.14 3063.49L2187.56 3062.27L2189.14 3063.49ZM-746.432 810.099C-771.194 842.357 -794.728 875.172 -817.041 908.486L-820.364 906.26C-798.003 872.874 -774.42 839.99 -749.605 807.663L-746.432 810.099ZM-938.228 1117.75C-974.324 1190.73 -1005.22 1265.36 -1030.97 1341.16L-1034.75 1339.87C-1008.95 1263.91 -977.988 1189.11 -941.813 1115.98L-938.228 1117.75ZM-1093.51 1574.77C-1109.26 1654.21 -1119.71 1734.32 -1124.91 1814.58L-1128.9 1814.32C-1123.69 1733.89 -1113.22 1653.6 -1097.43 1573.99L-1093.51 1574.77ZM-1124.78 2056.46C-1119.49 2136.98 -1108.96 2217.1 -1093.26 2296.26L-1097.18 2297.04C-1112.91 2217.71 -1123.47 2137.42 -1128.78 2056.72L-1124.78 2056.46ZM-1030.86 2529.95C-1005.09 2606.14 -974.293 2680.83 -938.543 2753.5L-942.132 2755.26C-977.96 2682.44 -1008.82 2607.58 -1034.65 2531.23L-1030.86 2529.95ZM-817.743 2963C-773.276 3029.57 -724.144 3093.69 -670.412 3154.85L-673.417 3157.49C-727.266 3096.19 -776.505 3031.94 -821.07 2965.23L-817.743 2963ZM-499.254 3325.68C-469.089 3352.1 -437.873 3377.71 -405.615 3402.48L-408.05 3405.65C-440.377 3380.83 -471.659 3355.16 -501.889 3328.69L-499.254 3325.68ZM-405.615 3402.48C-373.356 3427.24 -340.542 3450.77 -307.228 3473.08L-309.454 3476.41C-342.839 3454.05 -375.724 3430.46 -408.05 3405.65L-405.615 3402.48ZM-97.9609 3594.27C-24.9884 3630.37 49.6489 3661.26 125.447 3687.01L124.16 3690.8C48.1968 3664.99 -26.6031 3634.03 -99.7344 3597.86L-97.9609 3594.27ZM359.056 3749.55C438.493 3765.31 518.611 3775.75 598.868 3780.95L598.609 3784.94C518.178 3779.73 437.887 3769.26 358.278 3753.48L359.056 3749.55ZM840.745 3780.83C921.271 3775.53 1001.39 3765 1080.55 3749.3L1081.33 3753.22C1002 3768.96 921.707 3779.51 841.008 3784.82L840.745 3780.83ZM1314.24 3686.9C1390.42 3661.13 1465.12 3630.34 1537.78 3594.59L1539.55 3598.18C1466.73 3634 1391.87 3664.87 1315.52 3690.69L1314.24 3686.9ZM1747.29 3473.79C1813.86 3429.32 1877.97 3380.19 1939.14 3326.46L1941.78 3329.46C1880.48 3383.31 1816.22 3432.55 1749.51 3477.11L1747.29 3473.79ZM2109.97 3155.3C2136.38 3125.13 2162 3093.92 2186.76 3061.66L2189.94 3064.09C2165.12 3096.42 2139.45 3127.7 2112.98 3157.93L2109.97 3155.3ZM2186.76 3061.66C2211.52 3029.4 2235.06 2996.59 2257.37 2963.27L2260.69 2965.5C2238.33 2998.88 2214.75 3031.77 2189.94 3064.09L2186.76 3061.66ZM2378.56 2754C2414.65 2681.03 2445.55 2606.39 2471.3 2530.6L2475.08 2531.88C2449.28 2607.85 2418.32 2682.65 2382.14 2755.78L2378.56 2754ZM2533.84 2296.99C2549.59 2217.55 2560.04 2137.43 2565.24 2057.18L2569.23 2057.43C2564.02 2137.87 2553.55 2218.16 2537.76 2297.77L2533.84 2296.99ZM2565.11 1815.3C2559.82 1734.77 2549.29 1654.65 2533.59 1575.5L2537.51 1574.72C2553.24 1654.05 2563.8 1734.34 2569.11 1815.04L2565.11 1815.3ZM2471.19 1341.81C2445.42 1265.62 2414.62 1190.92 2378.87 1118.26L2382.46 1116.49C2418.29 1189.32 2449.15 1264.17 2474.98 1340.52L2471.19 1341.81ZM2258.07 908.753C2213.61 842.187 2164.47 778.07 2110.74 716.907L2113.75 714.267C2167.6 775.563 2216.84 839.82 2261.4 906.531L2258.07 908.753ZM1939.58 546.075C1909.42 519.66 1878.2 494.043 1845.94 469.281L1848.38 466.108C1880.71 490.923 1911.99 516.594 1942.22 543.066L1939.58 546.075ZM1845.94 469.281C1813.69 444.519 1780.87 420.985 1747.56 398.673L1749.78 395.349C1783.17 417.71 1816.05 441.294 1848.38 466.108L1845.94 469.281ZM1538.29 277.486C1465.32 241.389 1390.68 210.498 1314.88 184.748L1316.17 180.96C1392.13 206.767 1466.93 237.725 1540.06 273.901L1538.29 277.486ZM1081.27 122.204C1001.84 106.451 921.72 96.0084 841.462 90.806L841.721 86.8143C922.152 92.0278 1002.44 102.493 1082.05 118.281L1081.27 122.204ZM599.585 90.9293C519.059 96.2241 438.941 106.757 359.783 122.456L359.004 118.532C438.333 102.8 518.623 92.2442 599.323 86.9377L599.585 90.9293ZM126.093 184.855C49.9071 210.625 -24.7889 241.42 -97.4548 277.171L-99.2206 273.582C-26.3968 237.753 48.461 206.891 124.811 181.066L126.093 184.855ZM-306.96 397.97C-373.527 442.437 -437.643 491.57 -498.806 545.301L-501.446 542.296C-440.15 488.448 -375.894 439.208 -309.182 394.644L-306.96 397.97ZM-669.639 716.459C-696.053 746.625 -721.67 777.84 -746.432 810.099L-749.605 807.663C-724.791 775.336 -699.119 744.054 -672.648 713.824L-669.639 716.459ZM-747.225 809.49C-772.001 841.766 -795.547 874.598 -817.872 907.93L-821.196 905.704C-798.823 872.301 -775.226 839.398 -750.398 807.054L-747.225 809.49ZM-939.125 1117.31C-975.241 1190.32 -1006.15 1265 -1031.91 1340.84L-1035.7 1339.55C-1009.88 1263.55 -978.905 1188.71 -942.71 1115.54L-939.125 1117.31ZM-1094.49 1574.57C-1110.25 1654.05 -1120.7 1734.21 -1125.91 1814.52L-1129.9 1814.26C-1124.68 1733.78 -1114.21 1653.45 -1098.41 1573.8L-1094.49 1574.57ZM-1125.78 2056.52C-1120.48 2137.09 -1109.95 2217.25 -1094.24 2296.46L-1098.16 2297.23C-1113.9 2217.86 -1124.46 2137.53 -1129.77 2056.79L-1125.78 2056.52ZM-1031.81 2530.27C-1006.02 2606.5 -975.21 2681.24 -939.44 2753.94L-943.029 2755.71C-978.877 2682.84 -1009.76 2607.95 -1035.59 2531.55L-1031.81 2530.27ZM-818.575 2963.56C-774.084 3030.16 -724.925 3094.31 -671.164 3155.51L-674.17 3158.15C-728.047 3096.82 -777.313 3032.53 -821.901 2965.78L-818.575 2963.56ZM-499.914 3326.43C-469.732 3352.86 -438.5 3378.49 -406.224 3403.27L-408.659 3406.44C-441.004 3381.61 -472.302 3355.93 -502.549 3329.44L-499.914 3326.43ZM-406.224 3403.27C-373.948 3428.04 -341.116 3451.59 -307.783 3473.92L-310.009 3477.24C-343.413 3454.87 -376.315 3431.27 -408.659 3406.44L-406.224 3403.27ZM-98.4033 3595.17C-25.3914 3631.28 49.2862 3662.19 125.125 3687.96L123.838 3691.74C47.8341 3665.92 -27.0061 3634.95 -100.177 3598.75L-98.4033 3595.17ZM358.861 3750.53C438.341 3766.3 518.501 3776.74 598.802 3781.95L598.544 3785.94C518.069 3780.72 437.735 3770.25 358.082 3754.46L358.861 3750.53ZM840.81 3781.83C921.38 3776.53 1001.54 3765.99 1080.74 3750.28L1081.52 3754.21C1002.15 3769.95 921.816 3780.51 841.073 3785.82L840.81 3781.83ZM1314.56 3687.85C1390.79 3662.07 1465.52 3631.25 1538.23 3595.48L1539.99 3599.07C1467.13 3634.92 1392.23 3665.8 1315.84 3691.64L1314.56 3687.85ZM1747.85 3474.62C1814.45 3430.13 1878.6 3380.97 1939.8 3327.21L1942.44 3330.21C1881.11 3384.09 1816.82 3433.36 1750.07 3477.95L1747.85 3474.62ZM2110.72 3155.96C2137.15 3125.78 2162.78 3094.54 2187.56 3062.27L2190.73 3064.7C2165.9 3097.05 2140.22 3128.35 2113.73 3158.59L2110.72 3155.96ZM2187.56 3062.27C2212.33 3029.99 2235.88 2997.16 2258.2 2963.83L2261.53 2966.05C2239.15 2999.46 2215.56 3032.36 2190.73 3064.7L2187.56 3062.27ZM2379.45 2754.45C2415.57 2681.43 2446.48 2606.76 2472.24 2530.92L2476.03 2532.21C2450.21 2608.21 2419.23 2683.05 2383.04 2756.22L2379.45 2754.45ZM2534.82 2297.18C2550.58 2217.7 2561.03 2137.54 2566.24 2057.24L2570.23 2057.5C2565.01 2137.97 2554.54 2218.31 2538.74 2297.96L2534.82 2297.18ZM2566.11 1815.23C2560.81 1734.66 2550.28 1654.5 2534.57 1575.3L2538.49 1574.52C2554.23 1653.89 2564.79 1734.23 2570.1 1814.97L2566.11 1815.23ZM2472.14 1341.48C2446.35 1265.26 2415.54 1190.52 2379.77 1117.82L2383.36 1116.05C2419.21 1188.91 2450.09 1263.81 2475.92 1340.2L2472.14 1341.48ZM2258.91 908.198C2214.41 841.595 2165.26 777.444 2111.49 716.248L2114.5 713.608C2168.38 774.937 2217.64 839.228 2262.23 905.976L2258.91 908.198ZM1940.24 545.323C1910.06 518.894 1878.83 493.264 1846.55 468.488L1848.99 465.315C1881.33 490.143 1912.63 515.828 1942.88 542.314L1940.24 545.323ZM1846.55 468.488C1814.28 443.713 1781.45 420.166 1748.11 397.841L1750.34 394.518C1783.74 416.891 1816.65 440.487 1848.99 465.315L1846.55 468.488ZM1538.73 276.589C1465.72 240.472 1391.04 209.565 1315.21 183.801L1316.49 180.013C1392.5 205.834 1467.34 236.809 1540.51 273.003L1538.73 276.589ZM1081.47 121.223C1001.99 105.461 921.829 95.0132 841.528 89.8081L841.786 85.8164C922.261 91.0326 1002.6 101.504 1082.25 117.3L1081.47 121.223ZM599.52 89.9313C518.95 95.2291 438.789 105.768 359.588 121.475L358.81 117.551C438.181 101.811 518.515 91.2493 599.257 85.9399L599.52 89.9313ZM125.772 183.908C49.5447 209.691 -25.1914 240.504 -97.8965 276.273L-99.6624 272.684C-26.7993 236.837 48.0986 205.958 124.49 180.119L125.772 183.908ZM-307.516 397.138C-374.118 441.629 -438.269 490.788 -499.465 544.549L-502.105 541.544C-440.776 487.666 -376.485 438.4 -309.737 393.812L-307.516 397.138ZM-670.39 715.8C-696.819 745.981 -722.45 777.214 -747.225 809.49L-750.398 807.054C-725.57 774.71 -699.885 743.411 -673.399 713.164L-670.39 715.8ZM-748.019 808.881L-751.192 806.445L-748.019 808.881ZM1847.16 467.695L1844.73 470.868L1847.16 467.695ZM2188.35 3062.88L2185.18 3060.44L2188.35 3062.88ZM-748.812 808.272L-751.985 805.836L-748.812 808.272ZM1847.77 466.902L1845.34 470.075L1847.77 466.902ZM-407.442 3404.86L-405.006 3401.68L-407.442 3404.86ZM2189.14 3063.49L2185.97 3061.05L2189.14 3063.49ZM-744.846 811.317C-769.581 843.541 -793.09 876.32 -815.379 909.599L-822.026 905.147C-799.641 871.726 -776.032 838.806 -751.192 806.445L-744.846 811.317ZM-936.435 1118.64C-972.493 1191.53 -1003.35 1266.09 -1029.07 1341.8L-1036.65 1339.23C-1010.81 1263.18 -979.82 1188.3 -943.606 1115.09L-936.435 1118.64ZM-1091.55 1575.16C-1107.28 1654.51 -1117.71 1734.54 -1122.91 1814.71L-1130.89 1814.19C-1125.68 1733.68 -1115.2 1653.3 -1099.39 1573.6L-1091.55 1575.16ZM-1122.79 2056.33C-1117.5 2136.77 -1106.98 2216.8 -1091.3 2295.87L-1099.14 2297.43C-1114.89 2218.01 -1125.46 2137.64 -1130.77 2056.85L-1122.79 2056.33ZM-1028.96 2529.31C-1003.22 2605.41 -972.46 2680.03 -936.748 2752.62L-943.926 2756.15C-979.793 2683.24 -1010.69 2608.31 -1036.54 2531.87L-1028.96 2529.31ZM-816.08 2961.89C-771.662 3028.39 -722.583 3092.43 -668.91 3153.53L-674.92 3158.81C-728.827 3097.45 -778.12 3033.12 -822.733 2966.34L-816.08 2961.89ZM-497.936 3324.18C-467.803 3350.56 -436.621 3376.15 -404.397 3400.89L-409.268 3407.24C-441.629 3382.39 -472.944 3356.7 -503.207 3330.2L-497.936 3324.18ZM-404.397 3400.89C-372.173 3425.63 -339.393 3449.13 -306.115 3471.42L-310.566 3478.07C-343.988 3455.68 -376.907 3432.08 -409.268 3407.24L-404.397 3400.89ZM-97.0741 3592.48C-24.181 3628.54 50.3749 3659.39 126.09 3685.12L123.517 3692.69C47.4708 3666.86 -27.4105 3635.86 -100.621 3599.65L-97.0741 3592.48ZM359.445 3747.59C438.796 3763.33 518.826 3773.76 598.997 3778.96L598.48 3786.94C517.962 3781.72 437.585 3771.24 357.889 3755.44L359.445 3747.59ZM840.614 3778.83C921.053 3773.54 1001.09 3763.02 1080.16 3747.34L1081.71 3755.19C1002.3 3770.94 921.925 3781.5 841.139 3786.81L840.614 3778.83ZM1313.6 3685.01C1389.7 3659.27 1464.31 3628.5 1536.9 3592.79L1540.43 3599.97C1467.53 3635.84 1392.59 3666.73 1316.16 3692.59L1313.6 3685.01ZM1746.18 3472.12C1812.67 3427.71 1876.72 3378.63 1937.82 3324.95L1943.1 3330.96C1881.73 3384.87 1817.41 3434.16 1750.62 3478.78L1746.18 3472.12ZM2108.46 3153.98C2134.85 3123.85 2160.44 3092.66 2185.18 3060.44L2191.52 3065.31C2166.68 3097.67 2140.98 3128.99 2114.48 3159.25L2108.46 3153.98ZM2185.18 3060.44C2209.91 3028.22 2233.42 2995.44 2255.71 2962.16L2262.36 2966.61C2239.97 3000.03 2216.36 3032.95 2191.52 3065.31L2185.18 3060.44ZM2376.77 2753.12C2412.82 2680.22 2443.68 2605.67 2469.4 2529.95L2476.98 2532.53C2451.14 2608.57 2420.15 2683.45 2383.94 2756.66L2376.77 2753.12ZM2531.88 2296.6C2547.61 2217.25 2558.05 2137.22 2563.24 2057.05L2571.22 2057.56C2566.01 2138.08 2555.53 2218.46 2539.72 2298.15L2531.88 2296.6ZM2563.12 1815.43C2557.83 1734.99 2547.31 1654.96 2531.63 1575.89L2539.47 1574.33C2555.22 1653.74 2565.79 1734.12 2571.1 1814.9L2563.12 1815.43ZM2469.29 1342.45C2443.55 1266.34 2412.79 1191.73 2377.08 1119.14L2384.26 1115.61C2420.12 1188.51 2451.02 1263.45 2476.87 1339.88L2469.29 1342.45ZM2256.41 909.864C2211.99 843.37 2162.91 779.324 2109.24 718.227L2115.25 712.947C2169.16 774.31 2218.45 838.636 2263.06 905.42L2256.41 909.864ZM1938.27 547.58C1908.13 521.193 1876.95 495.604 1844.73 470.868L1849.6 464.522C1881.96 489.363 1913.27 515.061 1943.54 541.561L1938.27 547.58ZM1844.73 470.868C1812.5 446.132 1779.72 422.623 1746.44 400.335L1750.9 393.688C1784.32 416.072 1817.24 439.681 1849.6 464.522L1844.73 470.868ZM1537.4 279.279C1464.51 243.221 1389.96 212.364 1314.24 186.641L1316.81 179.067C1392.86 204.901 1467.74 235.893 1540.95 272.108L1537.4 279.279ZM1080.89 124.166C1001.53 108.43 921.504 97.9984 841.333 92.8019L841.85 84.8185C922.368 90.0377 1002.75 100.514 1082.44 116.319L1080.89 124.166ZM599.716 92.9248C519.277 98.2142 439.245 108.736 360.172 124.418L358.615 116.57C438.029 100.821 518.405 90.2542 599.191 84.9422L599.716 92.9248ZM126.734 186.749C50.6302 212.491 -23.9848 243.254 -96.5719 278.965L-100.103 271.787C-27.2008 235.92 47.7379 205.024 124.17 179.171L126.734 186.749ZM-305.849 399.633C-372.343 444.052 -436.39 493.131 -497.486 546.804L-502.766 540.794C-441.404 486.887 -377.077 437.594 -310.293 392.981L-305.849 399.633ZM-668.134 717.777C-694.521 747.91 -720.11 779.092 -744.846 811.317L-751.192 806.445C-726.351 774.084 -700.652 742.769 -674.153 712.507L-668.134 717.777ZM-745.639 810.708C-770.388 842.949 -793.909 875.746 -816.21 909.043L-822.857 904.591C-800.461 871.152 -776.839 838.215 -751.985 805.836L-745.639 810.708ZM-937.332 1118.2C-973.409 1191.13 -1004.28 1265.73 -1030.02 1341.48L-1037.59 1338.91C-1011.75 1262.82 -980.737 1187.9 -944.503 1114.65L-937.332 1118.2ZM-1092.53 1574.96C-1108.27 1654.36 -1118.71 1734.43 -1123.91 1814.65L-1131.89 1814.13C-1126.67 1733.57 -1116.19 1653.15 -1100.38 1573.41L-1092.53 1574.96ZM-1123.79 2056.39C-1118.49 2136.88 -1107.97 2216.95 -1092.28 2296.07L-1100.12 2297.62C-1115.88 2218.17 -1126.45 2137.75 -1131.77 2056.92L-1123.79 2056.39ZM-1029.91 2529.63C-1004.16 2605.78 -973.376 2680.43 -937.645 2753.06L-944.824 2756.59C-980.71 2683.65 -1011.62 2608.67 -1037.49 2532.19L-1029.91 2529.63ZM-816.912 2962.45C-772.47 3028.98 -723.364 3093.06 -669.662 3154.19L-675.672 3159.47C-729.608 3098.07 -778.928 3033.71 -823.565 2966.89L-816.912 2962.45ZM-498.596 3324.93C-468.447 3351.33 -437.248 3376.93 -405.006 3401.68L-409.877 3408.03C-442.255 3383.17 -473.588 3357.46 -503.866 3330.95L-498.596 3324.93ZM-405.006 3401.68C-372.764 3426.43 -339.967 3449.95 -306.67 3472.25L-311.122 3478.9C-344.562 3456.5 -377.499 3432.88 -409.877 3408.03L-405.006 3401.68ZM-97.5165 3593.38C-24.584 3629.45 50.0122 3660.33 125.768 3686.06L123.195 3693.64C47.1081 3667.79 -27.8135 3636.78 -101.064 3600.55L-97.5165 3593.38ZM359.25 3748.57C438.643 3764.32 518.717 3774.75 598.932 3779.95L598.414 3787.94C517.853 3782.71 437.432 3772.23 357.693 3756.42L359.25 3748.57ZM840.679 3779.83C921.162 3774.54 1001.24 3764.01 1080.35 3748.32L1081.91 3756.17C1002.45 3771.93 922.033 3782.5 841.204 3787.81L840.679 3779.83ZM1313.92 3685.95C1390.06 3660.2 1464.72 3629.42 1537.34 3593.69L1540.88 3600.87C1467.93 3636.75 1392.95 3667.67 1316.48 3693.53L1313.92 3685.95ZM1746.73 3472.96C1813.26 3428.51 1877.35 3379.41 1938.48 3325.71L1943.76 3331.72C1882.36 3385.65 1818 3434.97 1751.18 3479.61L1746.73 3472.96ZM2109.22 3154.64C2135.62 3124.49 2161.22 3093.29 2185.97 3061.05L2192.31 3065.92C2167.46 3098.3 2141.75 3129.63 2115.23 3159.91L2109.22 3154.64ZM2185.97 3061.05C2210.72 3028.81 2234.24 2996.01 2256.54 2962.71L2263.19 2967.17C2240.79 3000.61 2217.17 3033.54 2192.31 3065.92L2185.97 3061.05ZM2377.66 2753.56C2413.74 2680.63 2444.61 2606.03 2470.35 2530.28L2477.92 2532.85C2452.08 2608.94 2421.07 2683.86 2384.83 2757.11L2377.66 2753.56ZM2532.86 2296.79C2548.6 2217.4 2559.04 2137.33 2564.24 2057.11L2572.22 2057.63C2567 2138.19 2556.52 2218.61 2540.71 2298.35L2532.86 2296.79ZM2564.12 1815.36C2558.82 1734.88 2548.3 1654.81 2532.61 1575.69L2540.45 1574.13C2556.21 1653.59 2566.78 1734.01 2572.1 1814.84L2564.12 1815.36ZM2470.24 1342.13C2444.49 1265.98 2413.71 1191.33 2377.98 1118.7L2385.15 1115.17C2421.04 1188.11 2451.95 1263.09 2477.82 1339.56L2470.24 1342.13ZM2257.24 909.309C2212.8 842.779 2163.69 778.697 2109.99 717.568L2116 712.288C2169.94 773.684 2219.26 838.045 2263.89 904.865L2257.24 909.309ZM1938.93 546.828C1908.78 520.427 1877.58 494.824 1845.34 470.075L1850.21 463.729C1882.59 488.583 1913.92 514.295 1944.2 540.809L1938.93 546.828ZM1845.34 470.075C1813.09 445.325 1780.3 421.804 1747 399.503L1751.45 392.856C1784.89 415.253 1817.83 438.875 1850.21 463.729L1845.34 470.075ZM1537.85 278.382C1464.91 242.304 1390.32 211.431 1314.56 185.694L1317.14 178.12C1393.22 203.968 1468.14 234.977 1541.39 271.211L1537.85 278.382ZM1081.08 123.185C1001.69 107.44 921.613 97.0032 841.399 91.8039L841.916 83.8205C922.477 89.0426 1002.9 99.5245 1082.64 115.338L1081.08 123.185ZM599.651 91.9271C519.168 97.2192 439.093 107.747 359.977 123.437L358.42 115.59C437.877 99.832 518.297 89.2592 599.126 83.9441L599.651 91.9271ZM126.412 185.802C50.2679 211.558 -24.3874 242.337 -97.0137 278.068L-100.545 270.89C-27.6034 235.003 47.3755 204.091 123.849 178.224L126.412 185.802ZM-306.405 398.801C-372.934 443.244 -437.016 492.349 -498.145 546.051L-503.425 540.041C-442.03 486.105 -377.669 436.786 -310.848 392.149L-306.405 398.801ZM-668.885 717.117C-695.286 747.267 -720.89 778.466 -745.639 810.708L-751.985 805.836C-727.131 773.458 -701.418 742.126 -674.904 711.847L-668.885 717.117Z" fill="#B59C75" mask="url(#path-4-inside-1_785_13960)"/>
<path d="M240.587 175.481L259.461 142.79L226.77 123.916L207.896 156.607L240.587 175.481Z" stroke="#B59C75" stroke-width="2"/>
<path d="M1200.02 175.419L1181.43 142.565L1214.28 123.977L1232.87 156.831L1200.02 175.419Z" stroke="#B59C75" stroke-width="2"/>
<rect x="5.96046e-08" y="-1.41421" width="37.7484" height="37.7484" transform="matrix(0.707107 -0.707107 -0.707107 -0.707107 719 111.016)" stroke="#B59C75" stroke-width="2"/>
</g>
</svg>
