<svg width="1004" height="1004" viewBox="0 0 1004 1004" fill="none" xmlns="http://www.w3.org/2000/svg">
<circle cx="502" cy="502" r="500.5" stroke="#B59C75" stroke-width="3"/>
<rect x="148.695" y="148.734" width="706.529" height="706.529" stroke="#B59C75" stroke-width="2"/>
<rect x="502" y="2.40933" width="706.529" height="706.529" transform="rotate(45 502 2.40933)" stroke="#B59C75" stroke-width="2"/>
<circle cx="501.96" cy="501.999" r="353.264" stroke="#B59C75" stroke-width="2"/>
<path fill-rule="evenodd" clip-rule="evenodd" d="M415.561 215.037C354.542 233.391 301.719 270.674 263.918 320.064L264.336 319.968L264.841 322.153C302.364 272.751 354.97 235.431 415.798 217.056L415.561 215.037ZM449.386 209.017C466.462 205.972 484.041 204.383 501.992 204.383C566.586 204.383 626.374 224.961 675.157 259.919L676.735 258.589C627.548 223.216 567.203 202.383 501.992 202.383C483.963 202.383 466.305 203.975 449.153 207.027L449.386 209.017ZM701.878 278.801L700.333 280.103C712.073 290.603 722.974 302.021 732.924 314.244L734.453 312.955C724.502 300.734 713.607 289.312 701.878 278.801ZM753.164 338.587L751.623 339.886C760.342 353.284 768.012 367.428 774.515 382.201L776.109 380.858C769.579 366.103 761.892 351.975 753.164 338.587ZM787.945 412.283L786.286 413.681C790.226 426.377 793.338 439.436 795.561 452.797L797.252 450.799C794.987 437.647 791.865 424.788 787.945 412.283ZM801.604 503.754L799.609 502.066C799.573 666.405 666.34 799.617 501.992 799.617C453.183 799.617 407.119 787.868 366.472 767.043L365.248 768.663C406.244 789.728 452.73 801.617 501.992 801.617C666.881 801.617 800.66 668.421 801.604 503.754ZM335.504 751.141L336.712 749.542C325.753 742.21 315.308 734.17 305.443 725.487H302.429C312.827 734.779 323.878 743.356 335.504 751.141ZM268.317 689.544V687.8H269.482C228.739 636.88 204.375 572.285 204.375 502C204.375 489.239 205.178 476.666 206.737 464.328L204.779 463.866C203.193 476.354 202.375 489.081 202.375 502C202.375 572.986 227.061 638.206 268.317 689.544ZM211.055 430.11L213.002 430.569C218.697 407.454 227.092 385.403 237.833 364.768L236.095 365.169L235.872 364.204C225.144 384.88 216.755 406.966 211.055 430.11Z" fill="#B59C75"/>
<rect x="304.977" y="688.801" width="35.6877" height="35.6877" transform="rotate(90 304.977 688.801)" stroke="#B59C75" stroke-width="2"/>
<rect x="824.7" y="475.203" width="35.6877" height="35.6877" transform="rotate(130.233 824.7 475.203)" stroke="#B59C75" stroke-width="2"/>
<rect x="263.587" y="321.168" width="35.6877" height="35.6877" transform="rotate(76.9966 263.587 321.168)" stroke="#B59C75" stroke-width="2"/>
</svg>
