<svg viewBox="0 0 1440 229" fill="none" xmlns="http://www.w3.org/2000/svg">
<mask id="mask0_785_13960" style="mask-type:alpha" maskUnits="userSpaceOnUse" x="0" y="0" width="1440" height="229">
<rect width="1440" height="229" fill="#D9D9D9"/>
</mask>
<g mask="url(#mask0_785_13960)">
<circle cx="719.935" cy="1914.74" r="1913.25" transform="rotate(44.4569 719.935 1914.74)" stroke="#B59C75" stroke-width="3"/>
<circle cx="719.76" cy="1896.57" r="1876.99" transform="rotate(36.2843 719.76 1896.57)" stroke="#B59C75" stroke-width="2"/>
<mask id="path-4-inside-1_785_13960" fill="white">
<path fill-rule="evenodd" clip-rule="evenodd" d="M1847.16 465.695C1036.31 -156.729 -125.595 -3.9745 -748.019 806.881C-1370.44 1617.74 -1217.69 2779.64 -406.833 3402.06C404.023 4024.49 1565.93 3871.73 2188.35 3060.88C2810.77 2250.02 2658.02 1088.12 1847.16 465.695ZM1847.77 464.902C1036.48 -157.858 -126.052 -5.02152 -748.812 806.272C-1371.57 1617.57 -1218.74 2780.1 -407.442 3402.86C403.852 4025.62 1566.38 3872.78 2189.14 3061.49C2811.9 2250.19 2659.07 1087.66 1847.77 464.902Z"/>
</mask>
<path d="M-748.019 806.881L-749.605 805.663L-748.019 806.881ZM1847.16 465.695L1845.94 467.281L1847.16 465.695ZM2188.35 3060.88L2186.76 3059.66L2188.35 3060.88ZM-748.812 806.272L-750.398 805.054L-748.812 806.272ZM1847.77 464.902L1846.55 466.488L1847.77 464.902ZM-407.442 3402.86L-406.224 3401.27L-407.442 3402.86ZM2189.14 3061.49L2187.56 3060.27L2189.14 3061.49ZM-746.432 808.099C-771.194 840.357 -794.728 873.172 -817.041 906.486L-820.364 904.26C-798.003 870.874 -774.42 837.99 -749.605 805.663L-746.432 808.099ZM-938.228 1115.75C-974.324 1188.73 -1005.22 1263.36 -1030.97 1339.16L-1034.75 1337.87C-1008.95 1261.91 -977.988 1187.11 -941.813 1113.98L-938.228 1115.75ZM-1093.51 1572.77C-1109.26 1652.21 -1119.71 1732.32 -1124.91 1812.58L-1128.9 1812.32C-1123.69 1731.89 -1113.22 1651.6 -1097.43 1571.99L-1093.51 1572.77ZM-1124.78 2054.46C-1119.49 2134.98 -1108.96 2215.1 -1093.26 2294.26L-1097.18 2295.04C-1112.91 2215.71 -1123.47 2135.42 -1128.78 2054.72L-1124.78 2054.46ZM-1030.86 2527.95C-1005.09 2604.14 -974.293 2678.83 -938.543 2751.5L-942.132 2753.26C-977.96 2680.44 -1008.82 2605.58 -1034.65 2529.23L-1030.86 2527.95ZM-817.743 2961C-773.276 3027.57 -724.144 3091.69 -670.412 3152.85L-673.417 3155.49C-727.266 3094.19 -776.505 3029.94 -821.07 2963.23L-817.743 2961ZM-499.254 3323.68C-469.089 3350.1 -437.873 3375.71 -405.615 3400.48L-408.05 3403.65C-440.377 3378.83 -471.659 3353.16 -501.889 3326.69L-499.254 3323.68ZM-405.615 3400.48C-373.356 3425.24 -340.542 3448.77 -307.228 3471.08L-309.454 3474.41C-342.839 3452.05 -375.724 3428.46 -408.05 3403.65L-405.615 3400.48ZM-97.9609 3592.27C-24.9884 3628.37 49.6489 3659.26 125.447 3685.01L124.16 3688.8C48.1968 3662.99 -26.6031 3632.03 -99.7344 3595.86L-97.9609 3592.27ZM359.056 3747.55C438.493 3763.31 518.611 3773.75 598.868 3778.95L598.609 3782.94C518.178 3777.73 437.887 3767.26 358.278 3751.48L359.056 3747.55ZM840.745 3778.83C921.271 3773.53 1001.39 3763 1080.55 3747.3L1081.33 3751.22C1002 3766.96 921.707 3777.51 841.008 3782.82L840.745 3778.83ZM1314.24 3684.9C1390.42 3659.13 1465.12 3628.34 1537.78 3592.59L1539.55 3596.18C1466.73 3632 1391.87 3662.87 1315.52 3688.69L1314.24 3684.9ZM1747.29 3471.79C1813.86 3427.32 1877.97 3378.19 1939.14 3324.46L1941.78 3327.46C1880.48 3381.31 1816.22 3430.55 1749.51 3475.11L1747.29 3471.79ZM2109.97 3153.3C2136.38 3123.13 2162 3091.92 2186.76 3059.66L2189.94 3062.09C2165.12 3094.42 2139.45 3125.7 2112.98 3155.93L2109.97 3153.3ZM2186.76 3059.66C2211.52 3027.4 2235.06 2994.59 2257.37 2961.27L2260.69 2963.5C2238.33 2996.88 2214.75 3029.77 2189.94 3062.09L2186.76 3059.66ZM2378.56 2752C2414.65 2679.03 2445.55 2604.39 2471.3 2528.6L2475.08 2529.88C2449.28 2605.85 2418.32 2680.65 2382.14 2753.78L2378.56 2752ZM2533.84 2294.99C2549.59 2215.55 2560.04 2135.43 2565.24 2055.18L2569.23 2055.43C2564.02 2135.87 2553.55 2216.16 2537.76 2295.77L2533.84 2294.99ZM2565.11 1813.3C2559.82 1732.77 2549.29 1652.65 2533.59 1573.5L2537.51 1572.72C2553.24 1652.05 2563.8 1732.34 2569.11 1813.04L2565.11 1813.3ZM2471.19 1339.81C2445.42 1263.62 2414.62 1188.92 2378.87 1116.26L2382.46 1114.49C2418.29 1187.32 2449.15 1262.17 2474.98 1338.52L2471.19 1339.81ZM2258.07 906.753C2213.61 840.187 2164.47 776.07 2110.74 714.907L2113.75 712.267C2167.6 773.563 2216.84 837.82 2261.4 904.531L2258.07 906.753ZM1939.58 544.075C1909.42 517.66 1878.2 492.043 1845.94 467.281L1848.38 464.108C1880.71 488.923 1911.99 514.594 1942.22 541.066L1939.58 544.075ZM1845.94 467.281C1813.69 442.519 1780.87 418.985 1747.56 396.673L1749.78 393.349C1783.17 415.71 1816.05 439.294 1848.38 464.108L1845.94 467.281ZM1538.29 275.486C1465.32 239.389 1390.68 208.498 1314.88 182.748L1316.17 178.96C1392.13 204.767 1466.93 235.725 1540.06 271.901L1538.29 275.486ZM1081.27 120.204C1001.84 104.451 921.72 94.0084 841.462 88.806L841.721 84.8143C922.152 90.0278 1002.44 100.493 1082.05 116.281L1081.27 120.204ZM599.585 88.9293C519.059 94.2241 438.941 104.757 359.783 120.456L359.004 116.532C438.333 100.8 518.623 90.2442 599.323 84.9377L599.585 88.9293ZM126.093 182.855C49.9071 208.625 -24.7889 239.42 -97.4548 275.171L-99.2206 271.582C-26.3968 235.753 48.461 204.891 124.811 179.066L126.093 182.855ZM-306.96 395.97C-373.527 440.437 -437.643 489.57 -498.806 543.301L-501.446 540.296C-440.15 486.448 -375.894 437.208 -309.182 392.644L-306.96 395.97ZM-669.639 714.459C-696.053 744.625 -721.67 775.84 -746.432 808.099L-749.605 805.663C-724.791 773.336 -699.119 742.054 -672.648 711.824L-669.639 714.459ZM-747.225 807.49C-772.001 839.766 -795.547 872.598 -817.872 905.93L-821.196 903.704C-798.823 870.301 -775.226 837.398 -750.398 805.054L-747.225 807.49ZM-939.125 1115.31C-975.241 1188.32 -1006.15 1263 -1031.91 1338.84L-1035.7 1337.55C-1009.88 1261.55 -978.905 1186.71 -942.71 1113.54L-939.125 1115.31ZM-1094.49 1572.57C-1110.25 1652.05 -1120.7 1732.21 -1125.91 1812.52L-1129.9 1812.26C-1124.68 1731.78 -1114.21 1651.45 -1098.41 1571.8L-1094.49 1572.57ZM-1125.78 2054.52C-1120.48 2135.09 -1109.95 2215.25 -1094.24 2294.46L-1098.16 2295.23C-1113.9 2215.86 -1124.46 2135.53 -1129.77 2054.79L-1125.78 2054.52ZM-1031.81 2528.27C-1006.02 2604.5 -975.21 2679.24 -939.44 2751.94L-943.029 2753.71C-978.877 2680.84 -1009.76 2605.95 -1035.59 2529.55L-1031.81 2528.27ZM-818.575 2961.56C-774.084 3028.16 -724.925 3092.31 -671.164 3153.51L-674.17 3156.15C-728.047 3094.82 -777.313 3030.53 -821.901 2963.78L-818.575 2961.56ZM-499.914 3324.43C-469.732 3350.86 -438.5 3376.49 -406.224 3401.27L-408.659 3404.44C-441.004 3379.61 -472.302 3353.93 -502.549 3327.44L-499.914 3324.43ZM-406.224 3401.27C-373.948 3426.04 -341.116 3449.59 -307.783 3471.92L-310.009 3475.24C-343.413 3452.87 -376.315 3429.27 -408.659 3404.44L-406.224 3401.27ZM-98.4033 3593.17C-25.3914 3629.28 49.2862 3660.19 125.125 3685.96L123.838 3689.74C47.8341 3663.92 -27.0061 3632.95 -100.177 3596.75L-98.4033 3593.17ZM358.861 3748.53C438.341 3764.3 518.501 3774.74 598.802 3779.95L598.544 3783.94C518.069 3778.72 437.735 3768.25 358.082 3752.46L358.861 3748.53ZM840.81 3779.83C921.38 3774.53 1001.54 3763.99 1080.74 3748.28L1081.52 3752.21C1002.15 3767.95 921.816 3778.51 841.073 3783.82L840.81 3779.83ZM1314.56 3685.85C1390.79 3660.07 1465.52 3629.25 1538.23 3593.48L1539.99 3597.07C1467.13 3632.92 1392.23 3663.8 1315.84 3689.64L1314.56 3685.85ZM1747.85 3472.62C1814.45 3428.13 1878.6 3378.97 1939.8 3325.21L1942.44 3328.21C1881.11 3382.09 1816.82 3431.36 1750.07 3475.95L1747.85 3472.62ZM2110.72 3153.96C2137.15 3123.78 2162.78 3092.54 2187.56 3060.27L2190.73 3062.7C2165.9 3095.05 2140.22 3126.35 2113.73 3156.59L2110.72 3153.96ZM2187.56 3060.27C2212.33 3027.99 2235.88 2995.16 2258.2 2961.83L2261.53 2964.05C2239.15 2997.46 2215.56 3030.36 2190.73 3062.7L2187.56 3060.27ZM2379.45 2752.45C2415.57 2679.43 2446.48 2604.76 2472.24 2528.92L2476.03 2530.21C2450.21 2606.21 2419.23 2681.05 2383.04 2754.22L2379.45 2752.45ZM2534.82 2295.18C2550.58 2215.7 2561.03 2135.54 2566.24 2055.24L2570.23 2055.5C2565.01 2135.97 2554.54 2216.31 2538.74 2295.96L2534.82 2295.18ZM2566.11 1813.23C2560.81 1732.66 2550.28 1652.5 2534.57 1573.3L2538.49 1572.52C2554.23 1651.89 2564.79 1732.23 2570.1 1812.97L2566.11 1813.23ZM2472.14 1339.48C2446.35 1263.26 2415.54 1188.52 2379.77 1115.82L2383.36 1114.05C2419.21 1186.91 2450.09 1261.81 2475.92 1338.2L2472.14 1339.48ZM2258.91 906.198C2214.41 839.595 2165.26 775.444 2111.49 714.248L2114.5 711.608C2168.38 772.937 2217.64 837.228 2262.23 903.976L2258.91 906.198ZM1940.24 543.323C1910.06 516.894 1878.83 491.264 1846.55 466.488L1848.99 463.315C1881.33 488.143 1912.63 513.828 1942.88 540.314L1940.24 543.323ZM1846.55 466.488C1814.28 441.713 1781.45 418.166 1748.11 395.841L1750.34 392.518C1783.74 414.891 1816.65 438.487 1848.99 463.315L1846.55 466.488ZM1538.73 274.589C1465.72 238.472 1391.04 207.565 1315.21 181.801L1316.49 178.013C1392.5 203.834 1467.34 234.809 1540.51 271.003L1538.73 274.589ZM1081.47 119.223C1001.99 103.461 921.829 93.0132 841.528 87.8081L841.786 83.8164C922.261 89.0326 1002.6 99.5035 1082.25 115.3L1081.47 119.223ZM599.52 87.9313C518.95 93.2291 438.789 103.768 359.588 119.475L358.81 115.551C438.181 99.8106 518.515 89.2493 599.257 83.9399L599.52 87.9313ZM125.772 181.908C49.5447 207.691 -25.1914 238.504 -97.8965 274.273L-99.6624 270.684C-26.7993 234.837 48.0986 203.958 124.49 178.119L125.772 181.908ZM-307.516 395.138C-374.118 439.629 -438.269 488.788 -499.465 542.549L-502.105 539.544C-440.776 485.666 -376.485 436.4 -309.737 391.812L-307.516 395.138ZM-670.39 713.8C-696.819 743.981 -722.45 775.214 -747.225 807.49L-750.398 805.054C-725.57 772.71 -699.885 741.411 -673.399 711.164L-670.39 713.8ZM-748.019 806.881L-751.192 804.445L-748.019 806.881ZM1847.16 465.695L1844.73 468.868L1847.16 465.695ZM2188.35 3060.88L2185.18 3058.44L2188.35 3060.88ZM-748.812 806.272L-751.985 803.836L-748.812 806.272ZM1847.77 464.902L1845.34 468.075L1847.77 464.902ZM-407.442 3402.86L-405.006 3399.68L-407.442 3402.86ZM2189.14 3061.49L2185.97 3059.05L2189.14 3061.49ZM-744.846 809.317C-769.581 841.541 -793.09 874.32 -815.379 907.599L-822.026 903.147C-799.641 869.726 -776.032 836.806 -751.192 804.445L-744.846 809.317ZM-936.435 1116.64C-972.493 1189.53 -1003.35 1264.09 -1029.07 1339.8L-1036.65 1337.23C-1010.81 1261.18 -979.82 1186.3 -943.606 1113.09L-936.435 1116.64ZM-1091.55 1573.16C-1107.28 1652.51 -1117.71 1732.54 -1122.91 1812.71L-1130.89 1812.19C-1125.68 1731.68 -1115.2 1651.3 -1099.39 1571.6L-1091.55 1573.16ZM-1122.79 2054.33C-1117.5 2134.77 -1106.98 2214.8 -1091.3 2293.87L-1099.14 2295.43C-1114.89 2216.01 -1125.46 2135.64 -1130.77 2054.85L-1122.79 2054.33ZM-1028.96 2527.31C-1003.22 2603.41 -972.46 2678.03 -936.748 2750.62L-943.926 2754.15C-979.793 2681.24 -1010.69 2606.31 -1036.54 2529.87L-1028.96 2527.31ZM-816.08 2959.89C-771.662 3026.39 -722.583 3090.43 -668.91 3151.53L-674.92 3156.81C-728.827 3095.45 -778.12 3031.12 -822.733 2964.34L-816.08 2959.89ZM-497.936 3322.18C-467.803 3348.56 -436.621 3374.15 -404.397 3398.89L-409.268 3405.24C-441.629 3380.39 -472.944 3354.7 -503.207 3328.2L-497.936 3322.18ZM-404.397 3398.89C-372.173 3423.63 -339.393 3447.13 -306.115 3469.42L-310.566 3476.07C-343.988 3453.68 -376.907 3430.08 -409.268 3405.24L-404.397 3398.89ZM-97.0741 3590.48C-24.181 3626.54 50.3749 3657.39 126.09 3683.12L123.517 3690.69C47.4708 3664.86 -27.4105 3633.86 -100.621 3597.65L-97.0741 3590.48ZM359.445 3745.59C438.796 3761.33 518.826 3771.76 598.997 3776.96L598.48 3784.94C517.962 3779.72 437.585 3769.24 357.889 3753.44L359.445 3745.59ZM840.614 3776.83C921.053 3771.54 1001.09 3761.02 1080.16 3745.34L1081.71 3753.19C1002.3 3768.94 921.925 3779.5 841.139 3784.81L840.614 3776.83ZM1313.6 3683.01C1389.7 3657.27 1464.31 3626.5 1536.9 3590.79L1540.43 3597.97C1467.53 3633.84 1392.59 3664.73 1316.16 3690.59L1313.6 3683.01ZM1746.18 3470.12C1812.67 3425.71 1876.72 3376.63 1937.82 3322.95L1943.1 3328.96C1881.73 3382.87 1817.41 3432.16 1750.62 3476.78L1746.18 3470.12ZM2108.46 3151.98C2134.85 3121.85 2160.44 3090.66 2185.18 3058.44L2191.52 3063.31C2166.68 3095.67 2140.98 3126.99 2114.48 3157.25L2108.46 3151.98ZM2185.18 3058.44C2209.91 3026.22 2233.42 2993.44 2255.71 2960.16L2262.36 2964.61C2239.97 2998.03 2216.36 3030.95 2191.52 3063.31L2185.18 3058.44ZM2376.77 2751.12C2412.82 2678.22 2443.68 2603.67 2469.4 2527.95L2476.98 2530.53C2451.14 2606.57 2420.15 2681.45 2383.94 2754.66L2376.77 2751.12ZM2531.88 2294.6C2547.61 2215.25 2558.05 2135.22 2563.24 2055.05L2571.22 2055.56C2566.01 2136.08 2555.53 2216.46 2539.72 2296.15L2531.88 2294.6ZM2563.12 1813.43C2557.83 1732.99 2547.31 1652.96 2531.63 1573.89L2539.47 1572.33C2555.22 1651.74 2565.79 1732.12 2571.1 1812.9L2563.12 1813.43ZM2469.29 1340.45C2443.55 1264.34 2412.79 1189.73 2377.08 1117.14L2384.26 1113.61C2420.12 1186.51 2451.02 1261.45 2476.87 1337.88L2469.29 1340.45ZM2256.41 907.864C2211.99 841.37 2162.91 777.324 2109.24 716.227L2115.25 710.947C2169.16 772.31 2218.45 836.636 2263.06 903.42L2256.41 907.864ZM1938.27 545.58C1908.13 519.193 1876.95 493.604 1844.73 468.868L1849.6 462.522C1881.96 487.363 1913.27 513.061 1943.54 539.561L1938.27 545.58ZM1844.73 468.868C1812.5 444.132 1779.72 420.623 1746.44 398.335L1750.9 391.688C1784.32 414.072 1817.24 437.681 1849.6 462.522L1844.73 468.868ZM1537.4 277.279C1464.51 241.221 1389.96 210.364 1314.24 184.641L1316.81 177.067C1392.86 202.901 1467.74 233.893 1540.95 270.108L1537.4 277.279ZM1080.89 122.166C1001.53 106.43 921.504 95.9984 841.333 90.8019L841.85 82.8185C922.368 88.0377 1002.75 98.514 1082.44 114.319L1080.89 122.166ZM599.716 90.9248C519.277 96.2142 439.245 106.736 360.172 122.418L358.615 114.57C438.029 98.8212 518.405 88.2542 599.191 82.9422L599.716 90.9248ZM126.734 184.749C50.6302 210.491 -23.9848 241.254 -96.5719 276.965L-100.103 269.787C-27.2008 233.92 47.7379 203.024 124.17 177.171L126.734 184.749ZM-305.849 397.633C-372.343 442.052 -436.39 491.131 -497.486 544.804L-502.766 538.794C-441.404 484.887 -377.077 435.594 -310.293 390.981L-305.849 397.633ZM-668.134 715.777C-694.521 745.91 -720.11 777.092 -744.846 809.317L-751.192 804.445C-726.351 772.084 -700.652 740.769 -674.153 710.507L-668.134 715.777ZM-745.639 808.708C-770.388 840.949 -793.909 873.746 -816.21 907.043L-822.857 902.591C-800.461 869.152 -776.839 836.215 -751.985 803.836L-745.639 808.708ZM-937.332 1116.2C-973.409 1189.13 -1004.28 1263.73 -1030.02 1339.48L-1037.59 1336.91C-1011.75 1260.82 -980.737 1185.9 -944.503 1112.65L-937.332 1116.2ZM-1092.53 1572.96C-1108.27 1652.36 -1118.71 1732.43 -1123.91 1812.65L-1131.89 1812.13C-1126.67 1731.57 -1116.19 1651.15 -1100.38 1571.41L-1092.53 1572.96ZM-1123.79 2054.39C-1118.49 2134.88 -1107.97 2214.95 -1092.28 2294.07L-1100.12 2295.62C-1115.88 2216.17 -1126.45 2135.75 -1131.77 2054.92L-1123.79 2054.39ZM-1029.91 2527.63C-1004.16 2603.78 -973.376 2678.43 -937.645 2751.06L-944.824 2754.59C-980.71 2681.65 -1011.62 2606.67 -1037.49 2530.19L-1029.91 2527.63ZM-816.912 2960.45C-772.47 3026.98 -723.364 3091.06 -669.662 3152.19L-675.672 3157.47C-729.608 3096.07 -778.928 3031.71 -823.565 2964.89L-816.912 2960.45ZM-498.596 3322.93C-468.447 3349.33 -437.248 3374.93 -405.006 3399.68L-409.877 3406.03C-442.255 3381.17 -473.588 3355.46 -503.866 3328.95L-498.596 3322.93ZM-405.006 3399.68C-372.764 3424.43 -339.967 3447.95 -306.67 3470.25L-311.122 3476.9C-344.562 3454.5 -377.499 3430.88 -409.877 3406.03L-405.006 3399.68ZM-97.5165 3591.38C-24.584 3627.45 50.0122 3658.33 125.768 3684.06L123.195 3691.64C47.1081 3665.79 -27.8135 3634.78 -101.064 3598.55L-97.5165 3591.38ZM359.25 3746.57C438.643 3762.32 518.717 3772.75 598.932 3777.95L598.414 3785.94C517.853 3780.71 437.432 3770.23 357.693 3754.42L359.25 3746.57ZM840.679 3777.83C921.162 3772.54 1001.24 3762.01 1080.35 3746.32L1081.91 3754.17C1002.45 3769.93 922.033 3780.5 841.204 3785.81L840.679 3777.83ZM1313.92 3683.95C1390.06 3658.2 1464.72 3627.42 1537.34 3591.69L1540.88 3598.87C1467.93 3634.75 1392.95 3665.67 1316.48 3691.53L1313.92 3683.95ZM1746.73 3470.96C1813.26 3426.51 1877.35 3377.41 1938.48 3323.71L1943.76 3329.72C1882.36 3383.65 1818 3432.97 1751.18 3477.61L1746.73 3470.96ZM2109.22 3152.64C2135.62 3122.49 2161.22 3091.29 2185.97 3059.05L2192.31 3063.92C2167.46 3096.3 2141.75 3127.63 2115.23 3157.91L2109.22 3152.64ZM2185.97 3059.05C2210.72 3026.81 2234.24 2994.01 2256.54 2960.71L2263.19 2965.17C2240.79 2998.61 2217.17 3031.54 2192.31 3063.92L2185.97 3059.05ZM2377.66 2751.56C2413.74 2678.63 2444.61 2604.03 2470.35 2528.28L2477.92 2530.85C2452.08 2606.94 2421.07 2681.86 2384.83 2755.11L2377.66 2751.56ZM2532.86 2294.79C2548.6 2215.4 2559.04 2135.33 2564.24 2055.11L2572.22 2055.63C2567 2136.19 2556.52 2216.61 2540.71 2296.35L2532.86 2294.79ZM2564.12 1813.36C2558.82 1732.88 2548.3 1652.81 2532.61 1573.69L2540.45 1572.13C2556.21 1651.59 2566.78 1732.01 2572.1 1812.84L2564.12 1813.36ZM2470.24 1340.13C2444.49 1263.98 2413.71 1189.33 2377.98 1116.7L2385.15 1113.17C2421.04 1186.11 2451.95 1261.09 2477.82 1337.56L2470.24 1340.13ZM2257.24 907.309C2212.8 840.779 2163.69 776.697 2109.99 715.568L2116 710.288C2169.94 771.684 2219.26 836.045 2263.89 902.865L2257.24 907.309ZM1938.93 544.828C1908.78 518.427 1877.58 492.824 1845.34 468.075L1850.21 461.729C1882.59 486.583 1913.92 512.295 1944.2 538.809L1938.93 544.828ZM1845.34 468.075C1813.09 443.325 1780.3 419.804 1747 397.503L1751.45 390.856C1784.89 413.253 1817.83 436.875 1850.21 461.729L1845.34 468.075ZM1537.85 276.382C1464.91 240.304 1390.32 209.431 1314.56 183.694L1317.14 176.12C1393.22 201.968 1468.14 232.977 1541.39 269.211L1537.85 276.382ZM1081.08 121.185C1001.69 105.44 921.613 95.0032 841.399 89.8039L841.916 81.8205C922.477 87.0426 1002.9 97.5245 1082.64 113.338L1081.08 121.185ZM599.651 89.9271C519.168 95.2192 439.093 105.747 359.977 121.437L358.42 113.59C437.877 97.832 518.297 87.2592 599.126 81.9441L599.651 89.9271ZM126.412 183.802C50.2679 209.558 -24.3874 240.337 -97.0137 276.068L-100.545 268.89C-27.6034 233.003 47.3755 202.091 123.849 176.224L126.412 183.802ZM-306.405 396.801C-372.934 441.244 -437.016 490.349 -498.145 544.051L-503.425 538.041C-442.03 484.105 -377.669 434.786 -310.848 390.149L-306.405 396.801ZM-668.885 715.117C-695.286 745.267 -720.89 776.466 -745.639 808.708L-751.985 803.836C-727.131 771.458 -701.418 740.126 -674.904 709.847L-668.885 715.117Z" fill="#B59C75" mask="url(#path-4-inside-1_785_13960)"/>
<path d="M240.587 173.481L259.461 140.79L226.77 121.916L207.896 154.607L240.587 173.481Z" stroke="#B59C75" stroke-width="2"/>
<path d="M1200.02 173.419L1181.43 140.565L1214.28 121.977L1232.87 154.831L1200.02 173.419Z" stroke="#B59C75" stroke-width="2"/>
<rect x="5.96046e-08" y="-1.41421" width="37.7484" height="37.7484" transform="matrix(0.707107 -0.707107 -0.707107 -0.707107 719 109.016)" stroke="#B59C75" stroke-width="2"/>
</g>
</svg>
