<svg width="554" height="554" viewBox="0 0 554 554" fill="none" xmlns="http://www.w3.org/2000/svg">
<circle cx="277" cy="277" r="276" stroke="#B59C75" stroke-width="2"/>
<rect x="82.5156" y="82.5195" width="388.961" height="388.961" stroke="#B59C75" stroke-width="2"/>
<rect x="277" y="1.96304" width="388.961" height="388.961" transform="rotate(45 277 1.96304)" stroke="#B59C75" stroke-width="2"/>
<circle cx="276.996" cy="277" r="194.48" stroke="#B59C75" stroke-width="2"/>
<path fill-rule="evenodd" clip-rule="evenodd" d="M229.312 118.654C195.639 128.781 166.489 149.356 145.63 176.611L145.867 176.556L146.407 178.895C166.997 151.53 195.988 130.846 229.549 120.673L229.312 118.654ZM248.081 116.225C257.467 114.548 267.13 113.673 276.998 113.673C312.366 113.673 345.108 124.915 371.846 144.02L373.424 142.69C346.282 123.17 312.983 111.673 276.998 111.673C267.052 111.673 257.311 112.552 247.848 114.235L248.081 116.225ZM387.297 153.843L385.752 155.145C392.235 160.934 398.252 167.233 403.742 173.978L405.271 172.689C399.781 165.946 393.769 159.643 387.297 153.843ZM415.596 186.833L414.054 188.132C418.861 195.53 423.085 203.342 426.662 211.502L428.256 210.158C424.653 202.017 420.411 194.221 415.596 186.833ZM434.787 227.499L433.126 228.898C435.309 235.99 437.021 243.288 438.228 250.755L439.922 248.753C438.672 241.496 436.949 234.4 434.787 227.499ZM442.322 277.963L440.323 276.272C440.325 276.515 440.325 276.757 440.325 277C440.325 367.203 367.201 440.327 276.998 440.327C250.271 440.327 225.043 433.907 202.773 422.525L201.549 424.145C224.169 435.767 249.818 442.327 276.998 442.327C367.984 442.327 441.804 368.827 442.322 277.963ZM185.136 414.477L186.343 412.878C180.209 408.777 174.369 404.273 168.86 399.402V400.319H166.881C172.62 405.447 178.719 410.18 185.136 414.477ZM148.064 380.492V379.523H149.851C127.222 351.494 113.672 315.829 113.672 277C113.672 270.029 114.109 263.16 114.956 256.419L112.998 255.957C112.123 262.848 111.672 269.871 111.672 277C111.672 316.173 125.296 352.163 148.064 380.492ZM116.462 237.33L118.409 237.79C121.596 224.855 126.324 212.527 132.388 201.012L130.284 201.498L130.159 200.958C124.238 212.369 119.608 224.557 116.462 237.33Z" fill="#B59C75"/>
<rect x="167.859" y="380.523" width="18.7958" height="18.7958" transform="rotate(90 167.859 380.523)" stroke="#B59C75" stroke-width="2"/>
<rect x="454.419" y="262.267" width="18.7958" height="18.7958" transform="rotate(130.233 454.419 262.267)" stroke="#B59C75" stroke-width="2"/>
<rect x="145.118" y="177.756" width="18.7958" height="18.7958" transform="rotate(76.9966 145.118 177.756)" stroke="#B59C75" stroke-width="2"/>
</svg>
