<svg width="91" height="91" viewBox="0 0 91 91" fill="none" xmlns="http://www.w3.org/2000/svg">
<g clip-path="url(#clip0_215_779)">
<path d="M45.587 47.9541L45.5625 47.9535L45.538 47.9541C44.8695 47.9705 44.2104 47.7948 43.6386 47.448L2.00737 19.6628C1.72942 19.4773 1.5625 19.1652 1.5625 18.831V17.7C1.5625 15.405 2.47332 13.2042 4.09428 11.5817C5.7152 9.95918 7.91344 9.04785 10.2054 9.04785H80.9196C83.2116 9.04785 85.4098 9.95918 87.0307 11.5817C88.6517 13.2042 89.5625 15.405 89.5625 17.7V18.831C89.5625 19.1652 89.3956 19.4773 89.1176 19.6628L47.4864 47.448C46.9146 47.7948 46.2555 47.9705 45.587 47.9541ZM52.9647 55.8657L53.0108 55.8364L53.0516 55.8037L88.0074 32.4734C88.6719 32.0299 89.5625 32.5062 89.5625 33.3051V72.3957C89.5625 74.6907 88.6517 76.8915 87.0307 78.514C85.4098 80.1365 83.2116 81.0479 80.9196 81.0479H10.2054C7.91344 81.0479 5.7152 80.1365 4.09428 78.514C2.47332 76.8915 1.5625 74.6907 1.5625 72.3957V33.3052C1.5625 32.5062 2.45312 32.0299 3.11764 32.4734L38.0734 55.8037L38.1099 55.8329L38.151 55.8597C40.3521 57.2935 42.9742 57.9967 45.5597 57.9972C48.1812 58.0124 50.7518 57.2725 52.9647 55.8657Z" stroke="#B59C75" stroke-width="2"/>
</g>
<defs>
<clipPath id="clip0_215_779">
<rect width="90" height="90" fill="white" transform="translate(0.4375 0.0478516)"/>
</clipPath>
</defs>
</svg>
