<svg width="50" height="51" viewBox="0 0 50 51" fill="none" xmlns="http://www.w3.org/2000/svg">
<path d="M25 1C11.187 1 0 12.2403 0 26.1193C0 37.2352 7.15652 46.6232 17.0935 49.9499C18.3435 50.1705 18.8109 49.4169 18.8109 48.7573C18.8109 48.161 18.7804 46.1842 18.7804 44.0785C12.5 45.2406 10.8761 42.5408 10.3761 41.1297C10.0935 40.4067 8.87609 38.1766 7.81087 37.5803C6.93696 37.1085 5.68696 35.9464 7.78043 35.9158C9.75 35.8853 11.1565 37.7375 11.6261 38.4911C13.8761 42.2918 17.4696 41.2215 18.9065 40.5618C19.1239 38.9302 19.7804 37.8315 20.5 37.2024C14.937 36.5755 9.12609 34.4087 9.12609 24.8C9.12609 22.0696 10.0935 19.8089 11.687 18.0506C11.437 17.4215 10.563 14.8462 11.937 11.3928C11.937 11.3928 14.0304 10.7332 18.813 13.9681C20.813 13.4024 22.937 13.1206 25.063 13.1206C27.187 13.1206 29.313 13.4046 31.313 13.9681C36.0957 10.7026 38.187 11.3928 38.187 11.3928C39.563 14.8462 38.687 17.4215 38.437 18.0506C40.0304 19.8089 41 22.0369 41 24.8C41 34.4393 35.1565 36.5733 29.5935 37.2024C30.5 37.9887 31.2804 39.4959 31.2804 41.8506C31.2804 45.21 31.25 47.9098 31.25 48.7573C31.25 49.4169 31.7196 50.2033 32.9674 49.9521C42.8457 46.6232 50 37.2024 50 26.1193C50 12.2403 38.813 1 25 1Z" fill="#212121"/>
</svg>
