<svg width="20" height="20" viewBox="0 0 20 20" fill="none" xmlns="http://www.w3.org/2000/svg">
<path d="M12.9166 1.875C12.9166 1.70924 12.9825 1.55027 13.0997 1.43306C13.2169 1.31585 13.3759 1.25 13.5416 1.25H18.125C18.2907 1.25 18.4497 1.31585 18.5669 1.43306C18.6841 1.55027 18.75 1.70924 18.75 1.875V6.45833C18.75 6.62409 18.6841 6.78306 18.5669 6.90028C18.4497 7.01749 18.2907 7.08333 18.125 7.08333C17.9592 7.08333 17.8002 7.01749 17.683 6.90028C17.5658 6.78306 17.5 6.62409 17.5 6.45833V3.38333L12.3166 8.56667C12.2594 8.62807 12.1904 8.67732 12.1137 8.71148C12.0371 8.74564 11.9543 8.76401 11.8704 8.76549C11.7865 8.76697 11.7031 8.75154 11.6253 8.7201C11.5475 8.68867 11.4768 8.64188 11.4174 8.58253C11.3581 8.52318 11.3113 8.45249 11.2799 8.37467C11.2484 8.29684 11.233 8.21348 11.2345 8.12957C11.236 8.04565 11.2543 7.96288 11.2885 7.88622C11.3226 7.80955 11.3719 7.74055 11.4333 7.68333L16.6166 2.5H13.5416C13.3759 2.5 13.2169 2.43415 13.0997 2.31694C12.9825 2.19973 12.9166 2.04076 12.9166 1.875Z" fill="#FCFBF8"/>
<path d="M2.08594 3.54167C2.08594 2.73667 2.73927 2.08334 3.54427 2.08334H10.6276C10.7934 2.08334 10.9523 2.14918 11.0695 2.26639C11.1868 2.3836 11.2526 2.54258 11.2526 2.70834C11.2526 2.8741 11.1868 3.03307 11.0695 3.15028C10.9523 3.26749 10.7934 3.33334 10.6276 3.33334H3.54427C3.48902 3.33334 3.43603 3.35529 3.39696 3.39436C3.35789 3.43343 3.33594 3.48642 3.33594 3.54167V16.4583C3.33594 16.5733 3.42927 16.6667 3.54427 16.6667H16.4609C16.5162 16.6667 16.5692 16.6447 16.6083 16.6057C16.6473 16.5666 16.6693 16.5136 16.6693 16.4583V9.375C16.6693 9.20924 16.7351 9.05027 16.8523 8.93306C16.9695 8.81585 17.1285 8.75 17.2943 8.75C17.46 8.75 17.619 8.81585 17.7362 8.93306C17.8534 9.05027 17.9193 9.20924 17.9193 9.375V16.4583C17.9193 16.8451 17.7656 17.216 17.4921 17.4895C17.2186 17.763 16.8477 17.9167 16.4609 17.9167H3.54427C3.1575 17.9167 2.78656 17.763 2.51307 17.4895C2.23958 17.216 2.08594 16.8451 2.08594 16.4583V3.54167Z" fill="#FCFBF8"/>
</svg>
