<svg width="50" height="51" viewBox="0 0 50 51" fill="none" xmlns="http://www.w3.org/2000/svg">
<path d="M24.9583 2C11.7208 2 1 12.7208 1 25.9583C1 36.5604 7.85833 45.5146 17.3812 48.6875C18.5792 48.8979 19.0271 48.1792 19.0271 47.55C19.0271 46.9813 18.9979 45.0958 18.9979 43.0875C12.9792 44.1958 11.4229 41.6208 10.9437 40.275C10.6729 39.5854 9.50625 37.4583 8.48542 36.8896C7.64792 36.4396 6.45 35.3313 8.45625 35.3021C10.3438 35.2729 11.6917 37.0396 12.1417 37.7583C14.2979 41.3833 17.7417 40.3625 19.1187 39.7333C19.3271 38.1771 19.9562 37.1292 20.6458 36.5292C15.3146 35.9313 9.74583 33.8646 9.74583 24.7C9.74583 22.0958 10.6729 19.9396 12.2 18.2625C11.9604 17.6625 11.1229 15.2063 12.4396 11.9125C12.4396 11.9125 14.4458 11.2833 19.0292 14.3688C20.9458 13.8292 22.9812 13.5604 25.0187 13.5604C27.0542 13.5604 29.0917 13.8313 31.0083 14.3688C35.5917 11.2542 37.5958 11.9125 37.5958 11.9125C38.9146 15.2063 38.075 17.6625 37.8354 18.2625C39.3625 19.9396 40.2917 22.0646 40.2917 24.7C40.2917 33.8938 34.6917 35.9292 29.3604 36.5292C30.2292 37.2792 30.9771 38.7167 30.9771 40.9625C30.9771 44.1667 30.9479 46.7417 30.9479 47.55C30.9479 48.1792 31.3979 48.9292 32.5938 48.6896C42.0604 45.5146 48.9167 36.5292 48.9167 25.9583C48.9167 12.7208 38.1958 2 24.9583 2Z" fill="#B59C75"/>
</svg>
