<svg width="349" height="51" viewBox="0 0 349 51" fill="none" xmlns="http://www.w3.org/2000/svg">
<path d="M21.89 2.47C22.3567 2.47 22.7067 2.56333 22.94 2.75C23.22 2.93667 23.36 3.17 23.36 3.45C23.36 3.73 23.1967 3.96333 22.87 4.15C22.59 4.33666 22.2167 4.40667 21.75 4.36C20.7233 4.26666 19.9533 4.22 19.44 4.22C16.6867 4.22 15.31 4.82666 15.31 6.04C15.31 6.41333 15.4267 6.78667 15.66 7.16L27.28 27.46C27.5133 27.8333 27.7467 28.02 27.98 28.02C28.26 28.02 28.5167 27.8333 28.75 27.46L39.74 9.33C40.2533 8.49 40.51 7.72 40.51 7.02C40.51 6.13333 40.09 5.45667 39.25 4.99C38.4567 4.47666 37.3367 4.22 35.89 4.22C35.47 4.22 34.84 4.26666 34 4.36H33.79C33.4633 4.36 33.1833 4.26667 32.95 4.08C32.7633 3.89333 32.67 3.66 32.67 3.38C32.67 3.14667 32.7867 2.93667 33.02 2.75C33.2533 2.56333 33.5567 2.47 33.93 2.47H50.59C51.01 2.47 51.3133 2.56333 51.5 2.75C51.7333 2.93667 51.85 3.17 51.85 3.45C51.85 3.73 51.7333 3.96333 51.5 4.15C51.2667 4.33666 50.94 4.40667 50.52 4.36C49.8667 4.26666 49.4233 4.22 49.19 4.22C46.8567 4.22 44.8967 5.50333 43.31 8.07L29.31 31.31C29.0767 31.73 28.96 32.1733 28.96 32.64C28.96 39.4067 29.17 43.6067 29.59 45.24C29.87 46.3133 30.43 47.0833 31.27 47.55C32.11 47.97 33.23 48.18 34.63 48.18C35.1433 48.18 35.96 48.1333 37.08 48.04H37.36C37.78 48.04 38.1067 48.1333 38.34 48.32C38.5733 48.5067 38.69 48.74 38.69 49.02C38.69 49.2533 38.55 49.4633 38.27 49.65C38.0367 49.8367 37.6867 49.93 37.22 49.93H15.8C15.3333 49.93 14.96 49.8367 14.68 49.65C14.4467 49.4633 14.33 49.23 14.33 48.95C14.33 48.67 14.47 48.4367 14.75 48.25C15.0767 48.0633 15.4733 47.9933 15.94 48.04C17.06 48.1333 17.8767 48.18 18.39 48.18C19.79 48.18 20.91 47.97 21.75 47.55C22.59 47.0833 23.15 46.3133 23.43 45.24C23.85 43.6067 24.06 39.3367 24.06 32.43C24.06 32.01 23.9433 31.5667 23.71 31.1L9.92 7.65C9.17333 6.39 8.33333 5.50333 7.4 4.99C6.51333 4.47666 5.41667 4.22 4.11 4.22C3.73667 4.22 3.03667 4.26666 2.01 4.36H1.73C1.31 4.36 0.983333 4.26667 0.75 4.08C0.516667 3.89333 0.4 3.66 0.4 3.38C0.4 3.14667 0.516667 2.93667 0.75 2.75C1.03 2.56333 1.40333 2.47 1.87 2.47H21.89ZM44.8773 27.88C44.8773 27.6933 44.994 27.5067 45.2273 27.32C45.5073 27.0867 45.8807 26.9 46.3473 26.76C47.374 26.4333 48.6573 25.7567 50.1973 24.73C50.384 24.59 50.6407 24.4267 50.9673 24.24C51.294 24.0067 51.5507 23.8433 51.7373 23.75C52.204 23.5167 52.554 23.4 52.7873 23.4C53.394 23.4 53.6973 23.68 53.6973 24.24L53.6273 30.68C53.534 35.5333 53.4873 39.2433 53.4873 41.81C53.4873 43.35 54.0473 44.7033 55.1673 45.87C56.334 46.99 57.6873 47.55 59.2273 47.55C61.234 47.55 63.0773 46.4067 64.7573 44.12C65.0373 43.6067 65.154 43.1633 65.1073 42.79C65.0607 42.0433 65.0373 41.0867 65.0373 39.92L65.1073 32.78C65.1073 31.52 64.8973 30.5167 64.4773 29.77C64.104 28.9767 63.474 28.58 62.5873 28.58C61.6073 28.58 61.1173 28.3467 61.1173 27.88C61.1173 27.6933 61.234 27.5067 61.4673 27.32C61.7473 27.0867 62.1207 26.9 62.5873 26.76C63.614 26.4333 64.8973 25.7567 66.4373 24.73C66.624 24.59 66.8807 24.4267 67.2073 24.24C67.534 24.0067 67.7907 23.8433 67.9773 23.75C68.444 23.5167 68.794 23.4 69.0273 23.4C69.634 23.4 69.9373 23.68 69.9373 24.24L69.7973 28.51C69.6107 31.9633 69.5173 34.88 69.5173 37.26C69.5173 39.9667 69.634 42.1367 69.8673 43.77C70.1473 45.4033 70.6607 46.22 71.4073 46.22C71.6407 46.22 71.9673 46.1733 72.3873 46.08C72.854 45.94 73.1807 45.87 73.3673 45.87C73.974 45.87 74.2773 46.1033 74.2773 46.57C74.2773 46.8033 74.1607 47.06 73.9273 47.34C73.694 47.5733 73.3673 47.7367 72.9473 47.83C71.9673 48.11 70.9407 48.5767 69.8673 49.23C69.0273 49.7433 68.444 50 68.1173 50C66.764 50 65.924 49.0433 65.5973 47.13C65.5507 46.71 65.4107 46.5 65.1773 46.5C65.0373 46.5 64.8507 46.6167 64.6173 46.85C62.564 48.9033 60.184 49.93 57.4773 49.93C56.1707 49.93 54.8407 49.65 53.4873 49.09C52.1807 48.53 51.084 47.7367 50.1973 46.71C49.3107 45.6367 48.8673 44.3767 48.8673 42.93V32.78C48.8673 31.52 48.6573 30.5167 48.2373 29.77C47.864 28.9767 47.234 28.58 46.3473 28.58C45.3673 28.58 44.8773 28.3467 44.8773 27.88ZM76.5474 4.78C76.5474 4.59333 76.6641 4.40666 76.8974 4.22C77.1774 3.98666 77.5508 3.82333 78.0174 3.73C79.3708 3.45 80.9341 2.68 82.7074 1.42C82.8474 1.32666 83.1508 1.14 83.6174 0.859998C84.1308 0.53333 84.5508 0.369996 84.8774 0.369996C85.5308 0.369996 85.8574 0.649997 85.8574 1.21L85.7174 6.11C85.3908 13.8567 85.2274 20.2967 85.2274 25.43V33.48C85.2274 34.04 85.4374 34.32 85.8574 34.32C86.0908 34.32 86.3708 34.2033 86.6974 33.97C89.6841 31.4033 91.7841 29.49 92.9974 28.23C94.2574 26.97 94.8874 26.13 94.8874 25.71C94.8874 25.43 94.6308 25.29 94.1174 25.29C93.8841 25.29 93.3941 25.3367 92.6474 25.43L92.2274 25.5C91.8541 25.5 91.5508 25.4067 91.3174 25.22C91.1308 25.0333 91.0374 24.8 91.0374 24.52C91.0374 24.24 91.1541 24.0067 91.3874 23.82C91.6674 23.6333 92.0408 23.54 92.5074 23.54H102.027C102.494 23.54 102.844 23.6333 103.077 23.82C103.357 23.96 103.497 24.17 103.497 24.45C103.497 24.73 103.334 24.9633 103.007 25.15C102.727 25.3367 102.331 25.43 101.817 25.43C100.791 25.43 99.4608 26.06 97.8274 27.32C96.2408 28.58 94.0474 30.5167 91.2474 33.13C91.0141 33.3167 90.8974 33.5733 90.8974 33.9C90.8974 34.18 90.9908 34.4133 91.1774 34.6C91.8774 35.3933 93.3708 37.19 95.6574 39.99C97.8508 42.7433 99.6008 44.7733 100.907 46.08C102.214 47.3867 103.357 48.04 104.337 48.04C104.851 48.04 105.247 48.1567 105.527 48.39C105.854 48.5767 106.017 48.81 106.017 49.09C106.017 49.3233 105.877 49.5333 105.597 49.72C105.364 49.86 105.014 49.93 104.547 49.93H92.9274C92.4608 49.93 92.0874 49.8367 91.8074 49.65C91.5741 49.4633 91.4574 49.23 91.4574 48.95C91.4574 48.6233 91.5974 48.3667 91.8774 48.18C92.1574 47.9933 92.5541 47.9467 93.0674 48.04C93.7208 48.1333 94.1641 48.18 94.3974 48.18C95.1441 48.18 95.5174 47.9233 95.5174 47.41C95.5174 46.8033 94.9574 45.7067 93.8374 44.12C92.7641 42.5333 90.9441 40.2467 88.3774 37.26C88.0974 36.9333 87.7941 36.77 87.4674 36.77C87.2341 36.77 87.0241 36.8633 86.8374 37.05L85.7874 37.96C85.3674 38.2867 85.1574 38.73 85.1574 39.29V41.74C85.1574 43.9333 85.3208 45.5433 85.6474 46.57C85.9741 47.5967 86.6741 48.11 87.7474 48.11C88.0274 48.11 88.2608 48.0867 88.4474 48.04L88.8674 47.97C89.2408 47.97 89.5208 48.0633 89.7074 48.25C89.9408 48.4367 90.0574 48.67 90.0574 48.95C90.0574 49.23 89.9174 49.4633 89.6374 49.65C89.4041 49.8367 89.0541 49.93 88.5874 49.93H77.1774C76.7108 49.93 76.3374 49.8367 76.0574 49.65C75.8241 49.4633 75.7074 49.23 75.7074 48.95C75.7074 48.6233 75.8474 48.3667 76.1274 48.18C76.4074 47.9933 76.8041 47.9467 77.3174 48.04C79.0441 48.32 80.1174 46.8967 80.5374 43.77C80.8174 41.25 80.9574 37.8433 80.9574 33.55C80.9574 25.6633 80.8408 18.7567 80.6074 12.83C80.5608 11.8967 80.5374 10.87 80.5374 9.75C80.5374 8.49 80.3274 7.48666 79.9074 6.74C79.5341 5.94666 78.9041 5.55 78.0174 5.55C77.5508 5.55 77.1774 5.48 76.8974 5.34C76.6641 5.2 76.5474 5.01333 76.5474 4.78ZM115.406 18.78C114.333 18.78 113.4 18.4067 112.606 17.66C111.86 16.8667 111.486 15.9333 111.486 14.86C111.486 13.74 111.86 12.8067 112.606 12.06C113.4 11.2667 114.333 10.87 115.406 10.87C116.48 10.87 117.39 11.2667 118.136 12.06C118.93 12.8067 119.326 13.74 119.326 14.86C119.326 15.9333 118.93 16.8667 118.136 17.66C117.39 18.4067 116.48 18.78 115.406 18.78ZM110.296 49.93C109.83 49.93 109.456 49.8367 109.176 49.65C108.943 49.4633 108.826 49.23 108.826 48.95C108.826 48.6233 108.966 48.3667 109.246 48.18C109.526 47.9933 109.923 47.9467 110.436 48.04C111.836 48.32 112.77 47.5733 113.236 45.8C113.516 44.7733 113.656 43.1867 113.656 41.04C113.656 39.5 113.633 38.31 113.586 37.47L113.516 32.78C113.516 31.52 113.306 30.5167 112.886 29.77C112.513 28.9767 111.883 28.58 110.996 28.58C110.53 28.58 110.156 28.51 109.876 28.37C109.643 28.23 109.526 28.0433 109.526 27.81C109.526 27.6233 109.643 27.4367 109.876 27.25C110.156 27.0167 110.53 26.8533 110.996 26.76C112.443 26.3867 113.936 25.6167 115.476 24.45C115.663 24.3567 115.99 24.17 116.456 23.89C116.923 23.5633 117.296 23.4 117.576 23.4C118.23 23.4 118.556 23.68 118.556 24.24L118.416 27.04L118.136 31.87C118.043 33.5967 117.996 35.8833 117.996 38.73C117.996 42.0433 118.113 44.4 118.346 45.8C118.486 46.5933 118.743 47.1767 119.116 47.55C119.49 47.9233 120.026 48.11 120.726 48.11C121.053 48.11 121.333 48.0867 121.566 48.04L121.986 47.97C122.36 47.97 122.64 48.0633 122.826 48.25C123.06 48.4367 123.176 48.67 123.176 48.95C123.176 49.23 123.036 49.4633 122.756 49.65C122.523 49.8367 122.173 49.93 121.706 49.93H115.896H110.296ZM158.485 49.93C158.018 49.93 157.645 49.8367 157.365 49.65C157.132 49.4633 157.015 49.23 157.015 48.95C157.015 48.67 157.155 48.4367 157.435 48.25C157.762 48.0633 158.158 47.9933 158.625 48.04C159.745 48.1333 160.562 48.18 161.075 48.18C162.475 48.18 163.595 47.97 164.435 47.55C165.275 47.0833 165.835 46.3133 166.115 45.24C166.535 43.56 166.745 37.19 166.745 26.13L166.815 18.78C166.862 17.24 166.885 15.0233 166.885 12.13C166.885 9.42333 166.815 7.3 166.675 5.76C166.535 4.73333 165.882 4.22 164.715 4.22H161.845C159.045 4.22 157.085 4.31333 155.965 4.5C154.845 4.64 153.772 5.06 152.745 5.76C150.085 7.48666 148.755 10.66 148.755 15.28C148.755 15.84 148.615 16.2833 148.335 16.61C148.055 16.9367 147.728 17.1 147.355 17.1C147.028 17.1 146.748 16.96 146.515 16.68C146.328 16.3533 146.235 15.9333 146.235 15.42C146.235 13.6933 146.492 10.1933 147.005 4.92C147.192 3.24 147.822 2.4 148.895 2.4L169.195 2.33L189.495 2.4C190.568 2.4 191.198 3.24 191.385 4.92C191.898 10.1933 192.155 13.6933 192.155 15.42C192.155 15.9333 192.038 16.3533 191.805 16.68C191.618 16.96 191.362 17.1 191.035 17.1C190.662 17.1 190.335 16.9367 190.055 16.61C189.775 16.2833 189.635 15.84 189.635 15.28C189.635 10.66 188.305 7.48666 185.645 5.76C184.618 5.06 183.568 4.64 182.495 4.5C181.468 4.31333 179.602 4.22 176.895 4.22H174.025C172.812 4.22 172.158 4.75666 172.065 5.83C171.785 8.95667 171.645 15.7233 171.645 26.13C171.645 37.19 171.855 43.56 172.275 45.24C172.555 46.3133 173.115 47.0833 173.955 47.55C174.795 47.97 175.915 48.18 177.315 48.18C177.828 48.18 178.645 48.1333 179.765 48.04H180.045C180.465 48.04 180.792 48.1333 181.025 48.32C181.258 48.5067 181.375 48.74 181.375 49.02C181.375 49.2533 181.235 49.4633 180.955 49.65C180.722 49.8367 180.372 49.93 179.905 49.93H169.195H158.485ZM197.985 50.07C195.139 50.07 192.969 49.6033 191.475 48.67C189.982 47.7367 189.282 46.1033 189.375 43.77C189.515 41.0633 191.149 39.08 194.275 37.82C197.449 36.5133 200.809 35.7433 204.355 35.51C205.009 35.4167 205.335 35.0433 205.335 34.39V30.82C205.335 29.0933 204.892 27.74 204.005 26.76C203.119 25.78 201.975 25.29 200.575 25.29C199.035 25.29 197.822 25.7567 196.935 26.69C196.049 27.5767 195.605 28.72 195.605 30.12C195.605 31.1 195.372 31.8233 194.905 32.29C194.439 32.7567 193.855 32.99 193.155 32.99C192.549 32.99 191.989 32.7567 191.475 32.29C191.009 31.8233 190.775 31.1467 190.775 30.26C190.775 29.0933 191.242 27.9967 192.175 26.97C193.155 25.8967 194.415 25.0333 195.955 24.38C197.542 23.7267 199.175 23.4 200.855 23.4C203.562 23.4 205.802 24.0767 207.575 25.43C209.349 26.7367 210.235 28.65 210.235 31.17V43.84C210.235 46.7333 210.819 48.18 211.985 48.18C212.125 48.18 212.452 48.0633 212.965 47.83C213.479 47.55 213.782 47.41 213.875 47.41C214.109 47.41 214.295 47.48 214.435 47.62C214.575 47.76 214.645 47.9467 214.645 48.18C214.645 48.74 214.179 49.1833 213.245 49.51C212.359 49.8367 211.425 50 210.445 50C208.392 50 206.969 49.3 206.175 47.9C205.989 47.5733 205.732 47.41 205.405 47.41C205.125 47.41 204.869 47.5033 204.635 47.69C202.349 49.2767 200.132 50.07 197.985 50.07ZM204.915 44.54C205.242 43.84 205.405 42.65 205.405 40.97L205.335 38.45C205.335 37.75 204.985 37.4 204.285 37.4C197.519 37.6333 194.135 39.6867 194.135 43.56C194.135 44.9133 194.625 45.9633 195.605 46.71C196.585 47.4567 197.799 47.83 199.245 47.83C200.459 47.83 201.602 47.55 202.675 46.99C203.749 46.3833 204.495 45.5667 204.915 44.54ZM216.859 4.78C216.859 4.59333 216.976 4.40666 217.209 4.22C217.489 3.98666 217.862 3.82333 218.329 3.73C219.682 3.45 221.246 2.68 223.019 1.42C223.159 1.32666 223.462 1.14 223.929 0.859998C224.442 0.53333 224.862 0.369996 225.189 0.369996C225.842 0.369996 226.169 0.649997 226.169 1.21L226.029 6.11C225.702 13.8567 225.539 20.2967 225.539 25.43V33.48C225.539 34.04 225.749 34.32 226.169 34.32C226.402 34.32 226.682 34.2033 227.009 33.97C229.996 31.4033 232.096 29.49 233.309 28.23C234.569 26.97 235.199 26.13 235.199 25.71C235.199 25.43 234.942 25.29 234.429 25.29C234.196 25.29 233.706 25.3367 232.959 25.43L232.539 25.5C232.166 25.5 231.862 25.4067 231.629 25.22C231.442 25.0333 231.349 24.8 231.349 24.52C231.349 24.24 231.466 24.0067 231.699 23.82C231.979 23.6333 232.352 23.54 232.819 23.54H242.339C242.806 23.54 243.156 23.6333 243.389 23.82C243.669 23.96 243.809 24.17 243.809 24.45C243.809 24.73 243.646 24.9633 243.319 25.15C243.039 25.3367 242.642 25.43 242.129 25.43C241.102 25.43 239.772 26.06 238.139 27.32C236.552 28.58 234.359 30.5167 231.559 33.13C231.326 33.3167 231.209 33.5733 231.209 33.9C231.209 34.18 231.302 34.4133 231.489 34.6C232.189 35.3933 233.682 37.19 235.969 39.99C238.162 42.7433 239.912 44.7733 241.219 46.08C242.526 47.3867 243.669 48.04 244.649 48.04C245.162 48.04 245.559 48.1567 245.839 48.39C246.166 48.5767 246.329 48.81 246.329 49.09C246.329 49.3233 246.189 49.5333 245.909 49.72C245.676 49.86 245.326 49.93 244.859 49.93H233.239C232.772 49.93 232.399 49.8367 232.119 49.65C231.886 49.4633 231.769 49.23 231.769 48.95C231.769 48.6233 231.909 48.3667 232.189 48.18C232.469 47.9933 232.866 47.9467 233.379 48.04C234.032 48.1333 234.476 48.18 234.709 48.18C235.456 48.18 235.829 47.9233 235.829 47.41C235.829 46.8033 235.269 45.7067 234.149 44.12C233.076 42.5333 231.256 40.2467 228.689 37.26C228.409 36.9333 228.106 36.77 227.779 36.77C227.546 36.77 227.336 36.8633 227.149 37.05L226.099 37.96C225.679 38.2867 225.469 38.73 225.469 39.29V41.74C225.469 43.9333 225.632 45.5433 225.959 46.57C226.286 47.5967 226.986 48.11 228.059 48.11C228.339 48.11 228.572 48.0867 228.759 48.04L229.179 47.97C229.552 47.97 229.832 48.0633 230.019 48.25C230.252 48.4367 230.369 48.67 230.369 48.95C230.369 49.23 230.229 49.4633 229.949 49.65C229.716 49.8367 229.366 49.93 228.899 49.93H217.489C217.022 49.93 216.649 49.8367 216.369 49.65C216.136 49.4633 216.019 49.23 216.019 48.95C216.019 48.6233 216.159 48.3667 216.439 48.18C216.719 47.9933 217.116 47.9467 217.629 48.04C219.356 48.32 220.429 46.8967 220.849 43.77C221.129 41.25 221.269 37.8433 221.269 33.55C221.269 25.6633 221.152 18.7567 220.919 12.83C220.872 11.8967 220.849 10.87 220.849 9.75C220.849 8.49 220.639 7.48666 220.219 6.74C219.846 5.94666 219.216 5.55 218.329 5.55C217.862 5.55 217.489 5.48 217.209 5.34C216.976 5.2 216.859 5.01333 216.859 4.78ZM257.748 50.07C254.901 50.07 252.731 49.6033 251.238 48.67C249.745 47.7367 249.045 46.1033 249.138 43.77C249.278 41.0633 250.911 39.08 254.038 37.82C257.211 36.5133 260.571 35.7433 264.118 35.51C264.771 35.4167 265.098 35.0433 265.098 34.39V30.82C265.098 29.0933 264.655 27.74 263.768 26.76C262.881 25.78 261.738 25.29 260.338 25.29C258.798 25.29 257.585 25.7567 256.698 26.69C255.811 27.5767 255.368 28.72 255.368 30.12C255.368 31.1 255.135 31.8233 254.668 32.29C254.201 32.7567 253.618 32.99 252.918 32.99C252.311 32.99 251.751 32.7567 251.238 32.29C250.771 31.8233 250.538 31.1467 250.538 30.26C250.538 29.0933 251.005 27.9967 251.938 26.97C252.918 25.8967 254.178 25.0333 255.718 24.38C257.305 23.7267 258.938 23.4 260.618 23.4C263.325 23.4 265.565 24.0767 267.338 25.43C269.111 26.7367 269.998 28.65 269.998 31.17V43.84C269.998 46.7333 270.581 48.18 271.748 48.18C271.888 48.18 272.215 48.0633 272.728 47.83C273.241 47.55 273.545 47.41 273.638 47.41C273.871 47.41 274.058 47.48 274.198 47.62C274.338 47.76 274.408 47.9467 274.408 48.18C274.408 48.74 273.941 49.1833 273.008 49.51C272.121 49.8367 271.188 50 270.208 50C268.155 50 266.731 49.3 265.938 47.9C265.751 47.5733 265.495 47.41 265.168 47.41C264.888 47.41 264.631 47.5033 264.398 47.69C262.111 49.2767 259.895 50.07 257.748 50.07ZM264.678 44.54C265.005 43.84 265.168 42.65 265.168 40.97L265.098 38.45C265.098 37.75 264.748 37.4 264.048 37.4C257.281 37.6333 253.898 39.6867 253.898 43.56C253.898 44.9133 254.388 45.9633 255.368 46.71C256.348 47.4567 257.561 47.83 259.008 47.83C260.221 47.83 261.365 47.55 262.438 46.99C263.511 46.3833 264.258 45.5667 264.678 44.54ZM284.392 50C282.805 50 281.708 49.4167 281.102 48.25C280.495 47.0367 280.192 45.59 280.192 43.91V26.55C280.192 26.0833 279.958 25.85 279.492 25.85C278.652 25.85 277.975 25.8733 277.462 25.92C276.995 25.92 276.598 25.92 276.272 25.92C275.898 25.92 275.595 25.8033 275.362 25.57C275.175 25.3367 275.082 25.0567 275.082 24.73C275.082 24.3567 275.198 24.0533 275.432 23.82C275.665 23.54 276.015 23.4 276.482 23.4C278.722 23.4 280.215 22.77 280.962 21.51C281.522 20.6233 281.942 19.3867 282.222 17.8C282.408 16.9133 282.595 16.2833 282.782 15.91C282.968 15.49 283.272 15.28 283.692 15.28C284.578 15.28 285.022 15.8867 285.022 17.1V22.84C285.022 23.3067 285.255 23.54 285.722 23.54C287.355 23.54 288.708 23.5167 289.782 23.47C290.855 23.4233 291.602 23.4 292.022 23.4C292.442 23.4 292.745 23.5167 292.932 23.75C293.165 23.9833 293.282 24.2867 293.282 24.66C293.282 24.9867 293.165 25.29 292.932 25.57C292.698 25.85 292.395 25.9667 292.022 25.92C290.715 25.78 288.592 25.71 285.652 25.71C285.185 25.71 284.952 25.9433 284.952 26.41C284.905 31.73 284.882 37.5633 284.882 43.91C284.882 44.7033 285.138 45.4267 285.652 46.08C286.165 46.7333 286.818 47.06 287.612 47.06C288.638 47.06 289.735 46.4067 290.902 45.1C291.322 44.6333 291.695 44.4 292.022 44.4C292.395 44.4 292.582 44.61 292.582 45.03C292.582 45.45 292.372 45.94 291.952 46.5C291.112 47.5267 290.038 48.3667 288.732 49.02C287.425 49.6733 285.978 50 284.392 50ZM307.301 50C305.294 50 303.707 49.7433 302.541 49.23C301.421 48.7167 300.581 48.25 300.021 47.83C299.507 47.3633 299.227 47.13 299.181 47.13C299.041 47.13 298.947 47.27 298.901 47.55C298.854 47.7833 298.831 48.1333 298.831 48.6C298.831 48.88 298.737 49.1367 298.551 49.37C298.364 49.6033 298.131 49.72 297.851 49.72C297.244 49.72 296.941 49.37 296.941 48.67V44.47V41.04C296.941 40.7133 297.034 40.4567 297.221 40.27C297.407 40.0833 297.641 39.99 297.921 39.99C298.154 39.99 298.364 40.0833 298.551 40.27C298.737 40.4567 298.831 40.7133 298.831 41.04C298.831 42.02 299.227 43.07 300.021 44.19C300.861 45.2633 301.887 46.1733 303.101 46.92C304.361 47.6667 305.597 48.04 306.811 48.04C308.304 48.04 309.517 47.7133 310.451 47.06C311.384 46.36 311.851 45.4267 311.851 44.26C311.851 43.3733 311.291 42.5567 310.171 41.81C309.097 41.0167 307.394 40.0367 305.061 38.87L303.731 38.24C302.191 37.4933 300.954 36.84 300.021 36.28C299.134 35.72 298.364 34.9733 297.711 34.04C297.104 33.1067 296.801 31.9633 296.801 30.61C296.801 29.35 297.151 28.1833 297.851 27.11C298.597 25.99 299.647 25.1033 301.001 24.45C302.401 23.75 304.011 23.4 305.831 23.4C307.511 23.4 308.864 23.5867 309.891 23.96C310.964 24.3333 311.781 24.7067 312.341 25.08C312.947 25.4067 313.297 25.57 313.391 25.57C313.624 25.57 313.741 25.22 313.741 24.52C313.741 24.24 313.834 24.03 314.021 23.89C314.207 23.7033 314.417 23.61 314.651 23.61C314.931 23.61 315.164 23.7033 315.351 23.89C315.537 24.0767 315.631 24.31 315.631 24.59V28.44V31.87C315.631 32.15 315.514 32.3833 315.281 32.57C315.094 32.7567 314.884 32.85 314.651 32.85C314.417 32.85 314.207 32.7567 314.021 32.57C313.834 32.3833 313.741 32.15 313.741 31.87C313.741 30.9367 313.391 29.98 312.691 29C312.037 27.9733 311.104 27.1333 309.891 26.48C308.677 25.78 307.324 25.43 305.831 25.43C304.291 25.43 303.101 25.78 302.261 26.48C301.467 27.1333 301.071 27.95 301.071 28.93C301.071 30.75 302.587 32.3833 305.621 33.83C306.041 34.0167 306.437 34.2033 306.811 34.39C307.184 34.53 307.534 34.67 307.861 34.81C309.634 35.5567 311.057 36.2567 312.131 36.91C313.251 37.5167 314.184 38.3333 314.931 39.36C315.724 40.34 316.121 41.5533 316.121 43C316.121 45.0533 315.257 46.7333 313.531 48.04C311.851 49.3467 309.774 50 307.301 50ZM318.949 27.88C318.949 27.6933 319.066 27.5067 319.299 27.32C319.579 27.0867 319.953 26.9 320.419 26.76C321.446 26.4333 322.729 25.7567 324.269 24.73C324.456 24.59 324.713 24.4267 325.039 24.24C325.366 24.0067 325.623 23.8433 325.809 23.75C326.276 23.5167 326.626 23.4 326.859 23.4C327.466 23.4 327.769 23.68 327.769 24.24L327.699 30.68C327.606 35.5333 327.559 39.2433 327.559 41.81C327.559 43.35 328.119 44.7033 329.239 45.87C330.406 46.99 331.759 47.55 333.299 47.55C335.306 47.55 337.149 46.4067 338.829 44.12C339.109 43.6067 339.226 43.1633 339.179 42.79C339.133 42.0433 339.109 41.0867 339.109 39.92L339.179 32.78C339.179 31.52 338.969 30.5167 338.549 29.77C338.176 28.9767 337.546 28.58 336.659 28.58C335.679 28.58 335.189 28.3467 335.189 27.88C335.189 27.6933 335.306 27.5067 335.539 27.32C335.819 27.0867 336.193 26.9 336.659 26.76C337.686 26.4333 338.969 25.7567 340.509 24.73C340.696 24.59 340.953 24.4267 341.279 24.24C341.606 24.0067 341.863 23.8433 342.049 23.75C342.516 23.5167 342.866 23.4 343.099 23.4C343.706 23.4 344.009 23.68 344.009 24.24L343.869 28.51C343.683 31.9633 343.589 34.88 343.589 37.26C343.589 39.9667 343.706 42.1367 343.939 43.77C344.219 45.4033 344.733 46.22 345.479 46.22C345.713 46.22 346.039 46.1733 346.459 46.08C346.926 45.94 347.253 45.87 347.439 45.87C348.046 45.87 348.349 46.1033 348.349 46.57C348.349 46.8033 348.233 47.06 347.999 47.34C347.766 47.5733 347.439 47.7367 347.019 47.83C346.039 48.11 345.013 48.5767 343.939 49.23C343.099 49.7433 342.516 50 342.189 50C340.836 50 339.996 49.0433 339.669 47.13C339.623 46.71 339.483 46.5 339.249 46.5C339.109 46.5 338.923 46.6167 338.689 46.85C336.636 48.9033 334.256 49.93 331.549 49.93C330.243 49.93 328.913 49.65 327.559 49.09C326.253 48.53 325.156 47.7367 324.269 46.71C323.383 45.6367 322.939 44.3767 322.939 42.93V32.78C322.939 31.52 322.729 30.5167 322.309 29.77C321.936 28.9767 321.306 28.58 320.419 28.58C319.439 28.58 318.949 28.3467 318.949 27.88Z" fill="#B59C75"/>
</svg>
