<svg width="350" height="52" viewBox="0 0 350 52" fill="none" xmlns="http://www.w3.org/2000/svg">
<path d="M12.74 50.35C12.1333 50.35 11.6433 50.28 11.27 50.14C10.8967 50.0467 10.71 49.86 10.71 49.58C10.71 49.2533 10.8967 48.9967 11.27 48.81C11.6433 48.6233 12.2267 48.46 13.02 48.32C14.7933 47.9933 16.1467 47.3633 17.08 46.43C18.0133 45.45 18.48 44.12 18.48 42.44V32.08C18.48 31.1467 18.2233 30.1433 17.71 29.07C17.2433 27.95 16.9167 27.2267 16.73 26.9L8.54 13.46C8.21333 12.9 7.7 12.13 7 11.15C6.3 10.1233 5.53 9.16667 4.69 8.28C3.89667 7.39333 3.10333 6.83333 2.31 6.6C1.56333 6.36667 0.98 6.13333 0.56 5.9C0.186667 5.66666 0 5.38666 0 5.06C0 4.78 0.186667 4.59333 0.56 4.5C0.933333 4.36 1.42333 4.29 2.03 4.29C3.10333 4.29 4.34 4.33666 5.74 4.43C7.14 4.47666 8.63333 4.5 10.22 4.5C11.2933 4.5 12.2967 4.47666 13.23 4.43C14.21 4.38333 15.0733 4.36 15.82 4.36C16.4267 4.36 16.9167 4.43 17.29 4.57C17.6633 4.66333 17.85 4.85 17.85 5.13C17.85 5.45667 17.6633 5.73667 17.29 5.97C16.9167 6.15667 16.3333 6.34333 15.54 6.53C14.8867 6.71666 14.35 6.92666 13.93 7.16C13.51 7.39333 13.3 7.76666 13.3 8.28C13.3 8.88667 13.6033 9.72667 14.21 10.8L20.65 22.7C21.5833 24.4733 22.2367 25.36 22.61 25.36C22.89 25.36 23.1933 25.1733 23.52 24.8C23.8467 24.38 24.3133 23.68 24.92 22.7C25.9933 21.0667 26.95 19.5033 27.79 18.01C28.63 16.5167 29.6333 14.72 30.8 12.62C31.2667 11.8267 31.5933 11.15 31.78 10.59C31.9667 9.98333 32.06 9.47 32.06 9.05C32.06 8.16333 31.7333 7.55667 31.08 7.23C30.4733 6.90333 29.8433 6.69333 29.19 6.6C28.7233 6.50666 28.21 6.34333 27.65 6.11C27.1367 5.83 26.88 5.52666 26.88 5.2C26.88 4.92 27.0667 4.73333 27.44 4.64C27.8133 4.5 28.3033 4.43 28.91 4.43C29.9833 4.43 30.87 4.45333 31.57 4.5C32.27 4.5 33.1333 4.5 34.16 4.5C35.6067 4.5 36.9833 4.47666 38.29 4.43C39.5967 4.33666 40.6467 4.29 41.44 4.29C42.0467 4.29 42.5367 4.36 42.91 4.5C43.2833 4.59333 43.47 4.78 43.47 5.06C43.47 5.38666 43.0967 5.69 42.35 5.97C41.6033 6.25 40.74 6.53 39.76 6.81C38.5467 7.13666 37.52 7.81333 36.68 8.84C35.8867 9.82 34.86 11.2667 33.6 13.18C32.6667 14.6267 31.8733 15.84 31.22 16.82C30.6133 17.8 30.03 18.71 29.47 19.55C28.9567 20.39 28.42 21.2767 27.86 22.21C27.3 23.0967 26.6233 24.1933 25.83 25.5C25.2233 26.48 24.8033 27.2733 24.57 27.88C24.3367 28.4867 24.1967 29.07 24.15 29.63C24.1033 30.1433 24.08 30.8667 24.08 31.8V42.44C24.08 44.0267 24.57 45.3333 25.55 46.36C26.53 47.34 27.8833 47.9933 29.61 48.32C30.4033 48.46 30.9867 48.6233 31.36 48.81C31.7333 48.9967 31.92 49.2533 31.92 49.58C31.92 49.86 31.7333 50.0467 31.36 50.14C30.9867 50.28 30.4967 50.35 29.89 50.35C28.63 50.35 27.58 50.3033 26.74 50.21C25.9467 50.1633 25.1767 50.1167 24.43 50.07C23.6833 50.0233 22.7733 50 21.7 50C20.5333 50 19.5067 50.0233 18.62 50.07C17.78 50.1167 16.8933 50.1633 15.96 50.21C15.0733 50.3033 14 50.35 12.74 50.35ZM63.2888 51.33C62.9621 51.33 62.7988 51.1433 62.7988 50.77C62.7988 50.3033 62.8454 49.6267 62.9388 48.74C63.0788 47.8067 63.1488 47.0367 63.1488 46.43C63.1488 46.3367 63.1488 46.2667 63.1488 46.22C63.1488 46.1267 63.1488 46.0567 63.1488 46.01C61.3288 47.7833 59.4854 49.0667 57.6188 49.86C55.7988 50.6067 53.7921 50.98 51.5988 50.98C50.1054 50.98 48.7521 50.6533 47.5388 50C46.3254 49.3933 45.3688 48.4833 44.6688 47.27C43.9688 46.01 43.6188 44.47 43.6188 42.65V28.44C43.6188 27.4133 43.3854 26.5967 42.9188 25.99C42.4521 25.3833 41.6821 24.87 40.6088 24.45C40.3754 24.3567 40.1654 24.24 39.9788 24.1C39.7921 23.96 39.6988 23.7033 39.6988 23.33C39.6988 22.91 39.7921 22.63 39.9788 22.49C40.2121 22.35 40.4688 22.2567 40.7488 22.21C42.3354 22.1167 43.5488 22 44.3888 21.86C45.2754 21.6733 46.3721 21.4167 47.6788 21.09C47.8188 21.0433 47.9121 21.02 47.9588 21.02C48.0521 21.02 48.1454 21.02 48.2388 21.02C48.7521 21.02 48.9854 21.3467 48.9388 22C48.7988 23.0733 48.6821 23.9833 48.5888 24.73C48.5421 25.43 48.5188 26.3167 48.5188 27.39V41.04C48.5188 42.16 48.7988 43.21 49.3588 44.19C49.9188 45.1233 50.6421 45.8933 51.5288 46.5C52.4621 47.1067 53.4188 47.41 54.3988 47.41C55.6121 47.41 56.6621 47.34 57.5488 47.2C58.4821 47.06 59.3921 46.6633 60.2788 46.01C60.7921 45.6367 61.4454 45.03 62.2388 44.19C63.0321 43.35 63.4288 42.2067 63.4288 40.76V27.95C63.4288 26.97 63.1254 26.2467 62.5188 25.78C61.9588 25.2667 61.3054 24.9167 60.5588 24.73C59.8121 24.5433 59.2054 24.45 58.7388 24.45C58.3188 24.45 57.9688 24.38 57.6888 24.24C57.4088 24.0533 57.2688 23.7267 57.2688 23.26C57.2688 22.84 57.4088 22.56 57.6888 22.42C58.0154 22.28 58.3654 22.21 58.7388 22.21C60.1854 22.1633 61.3754 22.1167 62.3088 22.07C63.2888 21.9767 64.1521 21.86 64.8988 21.72C65.6921 21.5333 66.5088 21.3233 67.3488 21.09C67.4421 21.0433 67.5588 21.02 67.6988 21.02C67.8388 20.9733 67.9554 20.95 68.0488 20.95C68.6554 20.95 68.9588 21.2067 68.9588 21.72C68.9588 21.7667 68.9354 21.86 68.8888 22C68.8888 22.0933 68.8654 22.21 68.8188 22.35C68.7721 22.49 68.7021 22.8867 68.6088 23.54C68.5621 24.1933 68.4921 24.87 68.3988 25.57C68.3521 26.27 68.3288 26.8067 68.3288 27.18V43.35C68.3288 44.61 68.4454 45.52 68.6788 46.08C68.9588 46.5933 69.2621 46.85 69.5888 46.85C69.9621 46.85 70.4988 46.8267 71.1988 46.78C71.9454 46.6867 72.4821 46.64 72.8088 46.64C73.0421 46.64 73.2754 46.6867 73.5088 46.78C73.7421 46.8733 73.8588 47.13 73.8588 47.55C73.8588 47.9233 73.7654 48.18 73.5788 48.32C73.3921 48.4133 73.1588 48.4833 72.8788 48.53C71.0588 48.7633 69.4954 49.1133 68.1888 49.58C66.8821 50.0467 65.7154 50.49 64.6888 50.91C64.5488 50.9567 64.3388 51.0267 64.0588 51.12C63.7788 51.26 63.5221 51.33 63.2888 51.33ZM77.5228 50.21C76.4495 50.21 75.9128 49.9533 75.9128 49.44C75.9128 49.0667 76.0761 48.8333 76.4028 48.74C76.7761 48.6 77.1495 48.46 77.5228 48.32C78.2228 48.0867 78.8995 47.7833 79.5528 47.41C80.2061 47.0367 80.5328 46.3833 80.5328 45.45V10.38C80.5328 8.74667 80.2995 7.55667 79.8328 6.81C79.3661 6.06333 78.5495 5.55 77.3828 5.27C76.9628 5.17666 76.7528 4.87333 76.7528 4.36C76.7528 3.89333 76.9395 3.61333 77.3128 3.52C78.5261 3.24 79.5761 2.96 80.4628 2.68C81.3495 2.35333 82.1428 2.05 82.8428 1.77C83.5895 1.44333 84.3128 1.14 85.0128 0.859998C85.2928 0.719997 85.5028 0.649997 85.6428 0.649997C85.7828 0.649997 85.8761 0.696664 85.9228 0.789999C86.0161 0.883331 86.0628 1.04666 86.0628 1.28C86.0628 1.74666 85.9461 2.68 85.7128 4.08C85.5261 5.48 85.4328 7.67333 85.4328 10.66V33.62C85.4328 34.04 85.5495 34.25 85.7828 34.25C86.0628 34.25 86.4128 34.1333 86.8328 33.9C87.2995 33.6667 87.7895 33.3167 88.3028 32.85C90.2161 31.2167 91.8028 29.7467 93.0628 28.44C94.3695 27.0867 95.2561 26.1533 95.7228 25.64C95.9561 25.36 96.1195 25.15 96.2128 25.01C96.3061 24.8233 96.3528 24.6833 96.3528 24.59C96.3528 24.3567 96.1428 24.1467 95.7228 23.96C95.3495 23.7733 94.9528 23.6333 94.5328 23.54C93.9728 23.4 93.6928 23.1667 93.6928 22.84C93.6928 22.6067 93.8328 22.42 94.1128 22.28C94.3928 22.0933 94.7661 22 95.2328 22H98.6628C99.4095 22 100.179 21.93 100.973 21.79C101.813 21.65 102.583 21.51 103.283 21.37C104.029 21.23 104.613 21.16 105.033 21.16C105.686 21.16 106.013 21.3933 106.013 21.86C106.013 22.14 105.849 22.3967 105.523 22.63C105.196 22.8167 104.776 22.98 104.263 23.12C103.376 23.3533 102.536 23.68 101.743 24.1C100.996 24.52 100.296 24.9167 99.6428 25.29C99.3628 25.4767 98.7095 25.99 97.6828 26.83C96.7028 27.6233 95.5595 28.5567 94.2528 29.63C92.9928 30.7033 91.8028 31.73 90.6828 32.71C90.4028 32.99 90.2628 33.2233 90.2628 33.41C90.2628 33.4567 90.2861 33.5267 90.3328 33.62C90.3795 33.7133 90.4261 33.8067 90.4728 33.9C91.6861 35.3933 92.9928 36.91 94.3928 38.45C95.7928 39.99 97.0761 41.3433 98.2428 42.51C99.4561 43.6767 100.296 44.4933 100.763 44.96C101.556 45.7067 102.443 46.3833 103.423 46.99C104.449 47.55 105.313 47.9467 106.013 48.18C106.526 48.3667 106.993 48.53 107.413 48.67C107.879 48.81 108.113 49.0667 108.113 49.44C108.113 49.9533 107.646 50.21 106.713 50.21C104.893 50.21 102.839 50.1633 100.553 50.07C98.3128 50.0233 96.0028 50 93.6228 50C92.7828 50 92.3628 49.79 92.3628 49.37C92.3628 49.09 92.4795 48.8567 92.7128 48.67C92.9461 48.4833 93.2261 48.3433 93.5528 48.25C94.0661 48.0633 94.5095 47.8533 94.8828 47.62C95.2561 47.3867 95.4428 47.06 95.4428 46.64C95.4428 46.5 95.3961 46.36 95.3028 46.22C95.2095 46.0333 95.0928 45.8467 94.9528 45.66L86.4828 36.07C86.2028 35.7433 85.9695 35.58 85.7828 35.58C85.5495 35.58 85.4328 35.7433 85.4328 36.07C85.3861 36.7233 85.3628 37.4467 85.3628 38.24C85.3628 38.9867 85.3628 39.7567 85.3628 40.55C85.3628 41.3433 85.3628 42.16 85.3628 43C85.3628 43.84 85.3861 44.6567 85.4328 45.45C85.4328 46.3833 85.6661 47.0367 86.1328 47.41C86.5995 47.7833 87.1828 48.0867 87.8828 48.32C88.2561 48.46 88.6061 48.6 88.9328 48.74C89.3061 48.8333 89.4928 49.0667 89.4928 49.44C89.4928 49.7667 89.2595 49.9767 88.7928 50.07C88.3728 50.1633 88.0695 50.21 87.8828 50.21C86.9961 50.21 86.3428 50.1633 85.9228 50.07C85.5028 50.0233 85.1061 49.9767 84.7328 49.93C84.4061 49.8833 83.8228 49.86 82.9828 49.86C82.1895 49.86 81.5595 49.8833 81.0928 49.93C80.6261 49.9767 80.1361 50.0233 79.6228 50.07C79.1561 50.1633 78.4561 50.21 77.5228 50.21ZM111.875 50.21C111.455 50.21 111.105 50.14 110.825 50C110.592 49.9067 110.475 49.72 110.475 49.44C110.475 49.0667 110.639 48.81 110.965 48.67C111.339 48.53 111.712 48.4133 112.085 48.32C113.065 48.0867 113.812 47.8067 114.325 47.48C114.839 47.1067 115.095 46.5 115.095 45.66V30.47C115.095 29.21 114.862 28.09 114.395 27.11C113.975 26.13 113.159 25.5467 111.945 25.36C111.712 25.3133 111.525 25.22 111.385 25.08C111.292 24.94 111.245 24.73 111.245 24.45C111.245 23.9367 111.455 23.6567 111.875 23.61C113.742 23.19 115.282 22.63 116.495 21.93C117.709 21.1833 118.619 20.5767 119.225 20.11C119.645 19.7833 119.972 19.62 120.205 19.62C120.485 19.62 120.625 19.7367 120.625 19.97C120.625 20.3433 120.555 21.09 120.415 22.21C120.322 23.2833 120.229 24.4967 120.135 25.85C120.042 27.1567 119.995 28.3467 119.995 29.42V45.66C119.995 46.4533 120.252 47.0367 120.765 47.41C121.325 47.7833 122.072 48.0867 123.005 48.32C123.379 48.4133 123.729 48.53 124.055 48.67C124.429 48.81 124.615 49.0667 124.615 49.44C124.615 49.9533 124.149 50.21 123.215 50.21C122.329 50.21 121.605 50.1633 121.045 50.07C120.532 50.0233 120.019 49.9767 119.505 49.93C119.039 49.8833 118.385 49.86 117.545 49.86C116.752 49.86 116.099 49.8833 115.585 49.93C115.072 49.9767 114.559 50.0233 114.045 50.07C113.532 50.1633 112.809 50.21 111.875 50.21ZM117.475 13.88C116.495 13.88 115.655 13.5533 114.955 12.9C114.302 12.2 113.975 11.36 113.975 10.38C113.975 9.35333 114.302 8.51333 114.955 7.86C115.655 7.16 116.495 6.81 117.475 6.81C118.502 6.81 119.342 7.16 119.995 7.86C120.695 8.51333 121.045 9.35333 121.045 10.38C121.045 11.36 120.695 12.2 119.995 12.9C119.342 13.5533 118.502 13.88 117.475 13.88ZM154.947 50.35C154.341 50.35 153.851 50.28 153.477 50.14C153.104 50.0467 152.917 49.86 152.917 49.58C152.917 49.2533 153.104 48.9967 153.477 48.81C153.851 48.6233 154.434 48.46 155.227 48.32C157.001 47.9933 158.354 47.4333 159.287 46.64C160.221 45.8 160.687 44.54 160.687 42.86V15.7C160.687 13.5533 160.641 11.92 160.547 10.8C160.454 9.63333 160.291 8.81666 160.057 8.35C159.871 7.88333 159.591 7.62667 159.217 7.58C158.564 7.44 157.864 7.37 157.117 7.37C156.417 7.32333 155.461 7.3 154.247 7.3H150.957C149.837 7.3 148.717 7.53333 147.597 8C146.524 8.42 145.731 9.09666 145.217 10.03C145.077 10.2633 144.844 10.6133 144.517 11.08C144.191 11.5 143.841 11.8733 143.467 12.2C143.094 12.5267 142.721 12.69 142.347 12.69C142.161 12.69 142.021 12.5967 141.927 12.41C141.881 12.2233 141.857 12.0133 141.857 11.78C141.857 11.3133 141.974 10.8467 142.207 10.38C142.861 9.02666 143.327 7.83666 143.607 6.81C143.934 5.73666 144.191 4.47666 144.377 3.03C144.471 2.23667 144.634 1.77 144.867 1.63C145.147 1.49 145.381 1.42 145.567 1.42C145.754 1.42 146.034 1.7 146.407 2.26C146.827 2.82 147.131 3.28666 147.317 3.66C147.597 4.12666 148.227 4.47667 149.207 4.71C150.234 4.94333 151.237 5.06 152.217 5.06H176.857C178.491 5.06 179.821 4.96667 180.847 4.78C181.874 4.59333 182.761 4.33666 183.507 4.01C184.067 3.73 184.511 3.42666 184.837 3.1C185.211 2.77333 185.677 2.61 186.237 2.61C186.377 2.61 186.494 2.79666 186.587 3.17C186.681 3.49666 186.727 3.84666 186.727 4.22C186.727 4.45333 186.681 4.78 186.587 5.2C186.541 5.62 186.494 5.94666 186.447 6.18C186.307 7.02 186.167 7.62666 186.027 8C185.934 8.37333 185.864 8.7 185.817 8.98C185.771 9.26 185.747 9.70333 185.747 10.31V11.15C185.747 11.57 185.654 12.06 185.467 12.62C185.281 13.1333 185.001 13.39 184.627 13.39C184.301 13.39 184.044 13.1333 183.857 12.62C183.671 12.1067 183.484 11.4067 183.297 10.52C183.111 9.54 182.551 8.77 181.617 8.21C180.684 7.60333 179.097 7.3 176.857 7.3H169.787C168.761 7.3 167.991 7.44 167.477 7.72C166.964 8 166.637 8.7 166.497 9.82C166.357 10.94 166.287 12.7833 166.287 15.35V42.86C166.287 44.54 166.777 45.8 167.757 46.64C168.737 47.4333 170.091 47.9933 171.817 48.32C172.611 48.46 173.194 48.6233 173.567 48.81C173.941 48.9967 174.127 49.2533 174.127 49.58C174.127 49.86 173.941 50.0467 173.567 50.14C173.194 50.28 172.704 50.35 172.097 50.35C170.837 50.35 169.787 50.3033 168.947 50.21C168.154 50.1633 167.384 50.1167 166.637 50.07C165.891 50.0233 164.981 50 163.907 50C162.741 50 161.714 50.0233 160.827 50.07C159.987 50.1167 159.101 50.1633 158.167 50.21C157.281 50.3033 156.207 50.35 154.947 50.35ZM187.669 50.98C186.829 50.98 185.966 50.6533 185.079 50C184.239 49.3467 183.516 48.5533 182.909 47.62C182.349 46.6867 182.069 45.8 182.069 44.96C182.069 43.4667 182.466 42.3 183.259 41.46C184.052 40.62 185.312 39.85 187.039 39.15L194.179 36.21C195.112 35.8367 195.649 35.51 195.789 35.23C195.976 34.95 196.092 34.3433 196.139 33.41L196.279 28.93C196.326 27.7167 195.976 26.6667 195.229 25.78C194.529 24.8933 193.502 24.45 192.149 24.45C191.449 24.45 190.749 24.5667 190.049 24.8C189.349 25.0333 188.766 25.3367 188.299 25.71C188.019 25.8967 187.832 26.1767 187.739 26.55C187.646 26.9233 187.599 27.32 187.599 27.74C187.599 27.9267 187.599 28.1367 187.599 28.37C187.646 28.6033 187.669 28.8133 187.669 29C187.669 29.2333 187.366 29.56 186.759 29.98C186.199 30.3533 185.546 30.7033 184.799 31.03C184.099 31.31 183.516 31.45 183.049 31.45C182.816 31.45 182.629 31.4033 182.489 31.31C182.349 31.17 182.279 31.0067 182.279 30.82C182.279 30.0733 182.512 29.28 182.979 28.44C183.492 27.5533 184.192 26.7367 185.079 25.99C186.152 25.01 187.319 24.1467 188.579 23.4C189.839 22.6533 191.076 22.07 192.289 21.65C193.502 21.23 194.576 21.02 195.509 21.02C197.189 21.02 198.566 21.6267 199.639 22.84C200.759 24.0067 201.296 25.4767 201.249 27.25L200.899 44.05C200.852 45.03 201.062 45.8233 201.529 46.43C202.042 47.0367 202.672 47.34 203.419 47.34C204.586 47.34 205.449 47.0833 206.009 46.57C206.242 46.3367 206.429 46.22 206.569 46.22C206.802 46.22 206.989 46.29 207.129 46.43C207.269 46.57 207.339 46.7567 207.339 46.99C207.339 47.5033 207.082 48.0167 206.569 48.53C205.822 49.2767 205.006 49.86 204.119 50.28C203.279 50.7467 202.486 50.98 201.739 50.98C199.592 50.98 197.889 49.7667 196.629 47.34H196.419C194.879 48.6 193.409 49.51 192.009 50.07C190.609 50.6767 189.162 50.98 187.669 50.98ZM190.959 47.62C191.892 47.62 192.686 47.48 193.339 47.2C193.992 46.8733 194.576 46.4533 195.089 45.94C195.322 45.7067 195.509 45.4033 195.649 45.03C195.836 44.61 195.952 43.9567 195.999 43.07L196.139 39.64C196.186 39.1267 196.162 38.7533 196.069 38.52C195.976 38.2867 195.789 38.17 195.509 38.17C195.416 38.17 195.252 38.1933 195.019 38.24C194.786 38.2867 194.482 38.38 194.109 38.52C191.636 39.4067 189.909 40.34 188.929 41.32C187.996 42.2533 187.529 43.1167 187.529 43.91C187.529 45.1233 187.879 46.0567 188.579 46.71C189.326 47.3167 190.119 47.62 190.959 47.62ZM210.378 50.21C209.305 50.21 208.768 49.9533 208.768 49.44C208.768 49.0667 208.931 48.8333 209.258 48.74C209.631 48.6 210.005 48.46 210.378 48.32C211.078 48.0867 211.755 47.7833 212.408 47.41C213.061 47.0367 213.388 46.3833 213.388 45.45V10.38C213.388 8.74667 213.155 7.55667 212.688 6.81C212.221 6.06333 211.405 5.55 210.238 5.27C209.818 5.17666 209.608 4.87333 209.608 4.36C209.608 3.89333 209.795 3.61333 210.168 3.52C211.381 3.24 212.431 2.96 213.318 2.68C214.205 2.35333 214.998 2.05 215.698 1.77C216.445 1.44333 217.168 1.14 217.868 0.859998C218.148 0.719997 218.358 0.649997 218.498 0.649997C218.638 0.649997 218.731 0.696664 218.778 0.789999C218.871 0.883331 218.918 1.04666 218.918 1.28C218.918 1.74666 218.801 2.68 218.568 4.08C218.381 5.48 218.288 7.67333 218.288 10.66V33.62C218.288 34.04 218.405 34.25 218.638 34.25C218.918 34.25 219.268 34.1333 219.688 33.9C220.155 33.6667 220.645 33.3167 221.158 32.85C223.071 31.2167 224.658 29.7467 225.918 28.44C227.225 27.0867 228.111 26.1533 228.578 25.64C228.811 25.36 228.975 25.15 229.068 25.01C229.161 24.8233 229.208 24.6833 229.208 24.59C229.208 24.3567 228.998 24.1467 228.578 23.96C228.205 23.7733 227.808 23.6333 227.388 23.54C226.828 23.4 226.548 23.1667 226.548 22.84C226.548 22.6067 226.688 22.42 226.968 22.28C227.248 22.0933 227.621 22 228.088 22H231.518C232.265 22 233.035 21.93 233.828 21.79C234.668 21.65 235.438 21.51 236.138 21.37C236.885 21.23 237.468 21.16 237.888 21.16C238.541 21.16 238.868 21.3933 238.868 21.86C238.868 22.14 238.705 22.3967 238.378 22.63C238.051 22.8167 237.631 22.98 237.118 23.12C236.231 23.3533 235.391 23.68 234.598 24.1C233.851 24.52 233.151 24.9167 232.498 25.29C232.218 25.4767 231.565 25.99 230.538 26.83C229.558 27.6233 228.415 28.5567 227.108 29.63C225.848 30.7033 224.658 31.73 223.538 32.71C223.258 32.99 223.118 33.2233 223.118 33.41C223.118 33.4567 223.141 33.5267 223.188 33.62C223.235 33.7133 223.281 33.8067 223.328 33.9C224.541 35.3933 225.848 36.91 227.248 38.45C228.648 39.99 229.931 41.3433 231.098 42.51C232.311 43.6767 233.151 44.4933 233.618 44.96C234.411 45.7067 235.298 46.3833 236.278 46.99C237.305 47.55 238.168 47.9467 238.868 48.18C239.381 48.3667 239.848 48.53 240.268 48.67C240.735 48.81 240.968 49.0667 240.968 49.44C240.968 49.9533 240.501 50.21 239.568 50.21C237.748 50.21 235.695 50.1633 233.408 50.07C231.168 50.0233 228.858 50 226.478 50C225.638 50 225.218 49.79 225.218 49.37C225.218 49.09 225.335 48.8567 225.568 48.67C225.801 48.4833 226.081 48.3433 226.408 48.25C226.921 48.0633 227.365 47.8533 227.738 47.62C228.111 47.3867 228.298 47.06 228.298 46.64C228.298 46.5 228.251 46.36 228.158 46.22C228.065 46.0333 227.948 45.8467 227.808 45.66L219.338 36.07C219.058 35.7433 218.825 35.58 218.638 35.58C218.405 35.58 218.288 35.7433 218.288 36.07C218.241 36.7233 218.218 37.4467 218.218 38.24C218.218 38.9867 218.218 39.7567 218.218 40.55C218.218 41.3433 218.218 42.16 218.218 43C218.218 43.84 218.241 44.6567 218.288 45.45C218.288 46.3833 218.521 47.0367 218.988 47.41C219.455 47.7833 220.038 48.0867 220.738 48.32C221.111 48.46 221.461 48.6 221.788 48.74C222.161 48.8333 222.348 49.0667 222.348 49.44C222.348 49.7667 222.115 49.9767 221.648 50.07C221.228 50.1633 220.925 50.21 220.738 50.21C219.851 50.21 219.198 50.1633 218.778 50.07C218.358 50.0233 217.961 49.9767 217.588 49.93C217.261 49.8833 216.678 49.86 215.838 49.86C215.045 49.86 214.415 49.8833 213.948 49.93C213.481 49.9767 212.991 50.0233 212.478 50.07C212.011 50.1633 211.311 50.21 210.378 50.21ZM249.14 50.98C248.3 50.98 247.437 50.6533 246.55 50C245.71 49.3467 244.987 48.5533 244.38 47.62C243.82 46.6867 243.54 45.8 243.54 44.96C243.54 43.4667 243.937 42.3 244.73 41.46C245.524 40.62 246.784 39.85 248.51 39.15L255.65 36.21C256.584 35.8367 257.12 35.51 257.26 35.23C257.447 34.95 257.564 34.3433 257.61 33.41L257.75 28.93C257.797 27.7167 257.447 26.6667 256.7 25.78C256 24.8933 254.974 24.45 253.62 24.45C252.92 24.45 252.22 24.5667 251.52 24.8C250.82 25.0333 250.237 25.3367 249.77 25.71C249.49 25.8967 249.304 26.1767 249.21 26.55C249.117 26.9233 249.07 27.32 249.07 27.74C249.07 27.9267 249.07 28.1367 249.07 28.37C249.117 28.6033 249.14 28.8133 249.14 29C249.14 29.2333 248.837 29.56 248.23 29.98C247.67 30.3533 247.017 30.7033 246.27 31.03C245.57 31.31 244.987 31.45 244.52 31.45C244.287 31.45 244.1 31.4033 243.96 31.31C243.82 31.17 243.75 31.0067 243.75 30.82C243.75 30.0733 243.984 29.28 244.45 28.44C244.964 27.5533 245.664 26.7367 246.55 25.99C247.624 25.01 248.79 24.1467 250.05 23.4C251.31 22.6533 252.547 22.07 253.76 21.65C254.974 21.23 256.047 21.02 256.98 21.02C258.66 21.02 260.037 21.6267 261.11 22.84C262.23 24.0067 262.767 25.4767 262.72 27.25L262.37 44.05C262.324 45.03 262.534 45.8233 263 46.43C263.514 47.0367 264.144 47.34 264.89 47.34C266.057 47.34 266.92 47.0833 267.48 46.57C267.714 46.3367 267.9 46.22 268.04 46.22C268.274 46.22 268.46 46.29 268.6 46.43C268.74 46.57 268.81 46.7567 268.81 46.99C268.81 47.5033 268.554 48.0167 268.04 48.53C267.294 49.2767 266.477 49.86 265.59 50.28C264.75 50.7467 263.957 50.98 263.21 50.98C261.064 50.98 259.36 49.7667 258.1 47.34H257.89C256.35 48.6 254.88 49.51 253.48 50.07C252.08 50.6767 250.634 50.98 249.14 50.98ZM252.43 47.62C253.364 47.62 254.157 47.48 254.81 47.2C255.464 46.8733 256.047 46.4533 256.56 45.94C256.794 45.7067 256.98 45.4033 257.12 45.03C257.307 44.61 257.424 43.9567 257.47 43.07L257.61 39.64C257.657 39.1267 257.634 38.7533 257.54 38.52C257.447 38.2867 257.26 38.17 256.98 38.17C256.887 38.17 256.724 38.1933 256.49 38.24C256.257 38.2867 255.954 38.38 255.58 38.52C253.107 39.4067 251.38 40.34 250.4 41.32C249.467 42.2533 249 43.1167 249 43.91C249 45.1233 249.35 46.0567 250.05 46.71C250.797 47.3167 251.59 47.62 252.43 47.62ZM280.739 50.98C278.453 50.98 276.656 50.28 275.349 48.88C274.089 47.48 273.459 45.4033 273.459 42.65V26.41C273.459 26.0367 273.319 25.78 273.039 25.64C272.759 25.4533 272.153 25.36 271.219 25.36H270.799C270.566 25.36 270.356 25.22 270.169 24.94C270.029 24.6133 269.959 24.2867 269.959 23.96C269.959 23.8667 270.029 23.7267 270.169 23.54C270.309 23.3533 270.403 23.2367 270.449 23.19C271.383 22.5367 272.223 21.8833 272.969 21.23C273.763 20.5767 274.463 19.9467 275.069 19.34C275.723 18.6867 276.259 18.1033 276.679 17.59C276.913 17.3567 277.099 17.17 277.239 17.03C277.426 16.8433 277.636 16.75 277.869 16.75C278.103 16.75 278.313 16.7967 278.499 16.89C278.733 16.9833 278.826 17.1933 278.779 17.52L278.429 20.67C278.383 21.1833 278.499 21.5333 278.779 21.72C279.059 21.9067 279.503 22 280.109 22H288.089C288.276 22 288.439 22.1633 288.579 22.49C288.719 22.77 288.789 23.12 288.789 23.54C288.789 23.96 288.719 24.38 288.579 24.8C288.439 25.1733 288.276 25.36 288.089 25.36H281.159C279.993 25.36 279.223 25.4533 278.849 25.64C278.523 25.8267 278.359 26.3867 278.359 27.32V41.11C278.359 42.9767 278.756 44.4467 279.549 45.52C280.343 46.5933 281.486 47.13 282.979 47.13C284.333 47.13 285.383 47.0367 286.129 46.85C286.876 46.6167 287.553 46.29 288.159 45.87C288.253 45.7767 288.346 45.73 288.439 45.73C288.626 45.73 288.743 45.8467 288.789 46.08C288.883 46.2667 288.929 46.4767 288.929 46.71C288.929 46.9433 288.533 47.41 287.739 48.11C286.993 48.81 285.989 49.4633 284.729 50.07C283.516 50.6767 282.186 50.98 280.739 50.98ZM301.001 50.98C299.554 50.98 298.201 50.7467 296.941 50.28C295.681 49.86 294.608 49.2533 293.721 48.46C293.488 47.9467 293.301 47.0833 293.161 45.87C293.068 44.6567 292.998 43.6533 292.951 42.86C292.951 42.44 293.254 42.23 293.861 42.23C294.048 42.23 294.211 42.2767 294.351 42.37C294.538 42.4167 294.654 42.5333 294.701 42.72C295.308 45.0067 296.264 46.64 297.571 47.62C298.924 48.6 300.278 49.09 301.631 49.09C302.984 49.09 304.128 48.6467 305.061 47.76C306.041 46.8267 306.531 45.6833 306.531 44.33C306.531 43.07 306.111 41.9967 305.271 41.11C304.431 40.1767 302.961 39.0567 300.861 37.75C299.274 36.77 297.991 35.8367 297.011 34.95C296.031 34.0633 295.308 33.1533 294.841 32.22C294.421 31.2867 294.211 30.2367 294.211 29.07C294.211 27.5767 294.561 26.2233 295.261 25.01C295.961 23.7967 297.011 22.84 298.411 22.14C299.811 21.3933 301.561 21.02 303.661 21.02C305.061 21.02 306.228 21.16 307.161 21.44C308.094 21.72 308.794 22.0233 309.261 22.35C309.634 22.8633 309.938 23.68 310.171 24.8C310.451 25.8733 310.591 26.9 310.591 27.88C310.591 28.2067 310.358 28.37 309.891 28.37C309.611 28.37 309.331 28.3233 309.051 28.23C308.818 28.09 308.654 27.9267 308.561 27.74C307.954 26.2 307.184 25.0333 306.251 24.24C305.364 23.4 304.244 22.98 302.891 22.98C301.724 22.98 300.674 23.33 299.741 24.03C298.854 24.73 298.411 25.7567 298.411 27.11C298.411 28.1833 298.738 29.14 299.391 29.98C300.091 30.82 301.374 31.7767 303.241 32.85C305.948 34.39 307.954 35.8367 309.261 37.19C310.614 38.4967 311.291 40.2467 311.291 42.44C311.291 44.96 310.334 47.0133 308.421 48.6C306.508 50.1867 304.034 50.98 301.001 50.98ZM338.468 51.33C338.141 51.33 337.978 51.1433 337.978 50.77C337.978 50.3033 338.025 49.6267 338.118 48.74C338.258 47.8067 338.328 47.0367 338.328 46.43C338.328 46.3367 338.328 46.2667 338.328 46.22C338.328 46.1267 338.328 46.0567 338.328 46.01C336.508 47.7833 334.665 49.0667 332.798 49.86C330.978 50.6067 328.971 50.98 326.778 50.98C325.285 50.98 323.931 50.6533 322.718 50C321.505 49.3933 320.548 48.4833 319.848 47.27C319.148 46.01 318.798 44.47 318.798 42.65V28.44C318.798 27.4133 318.565 26.5967 318.098 25.99C317.631 25.3833 316.861 24.87 315.788 24.45C315.555 24.3567 315.345 24.24 315.158 24.1C314.971 23.96 314.878 23.7033 314.878 23.33C314.878 22.91 314.971 22.63 315.158 22.49C315.391 22.35 315.648 22.2567 315.928 22.21C317.515 22.1167 318.728 22 319.568 21.86C320.455 21.6733 321.551 21.4167 322.858 21.09C322.998 21.0433 323.091 21.02 323.138 21.02C323.231 21.02 323.325 21.02 323.418 21.02C323.931 21.02 324.165 21.3467 324.118 22C323.978 23.0733 323.861 23.9833 323.768 24.73C323.721 25.43 323.698 26.3167 323.698 27.39V41.04C323.698 42.16 323.978 43.21 324.538 44.19C325.098 45.1233 325.821 45.8933 326.708 46.5C327.641 47.1067 328.598 47.41 329.578 47.41C330.791 47.41 331.841 47.34 332.728 47.2C333.661 47.06 334.571 46.6633 335.458 46.01C335.971 45.6367 336.625 45.03 337.418 44.19C338.211 43.35 338.608 42.2067 338.608 40.76V27.95C338.608 26.97 338.305 26.2467 337.698 25.78C337.138 25.2667 336.485 24.9167 335.738 24.73C334.991 24.5433 334.385 24.45 333.918 24.45C333.498 24.45 333.148 24.38 332.868 24.24C332.588 24.0533 332.448 23.7267 332.448 23.26C332.448 22.84 332.588 22.56 332.868 22.42C333.195 22.28 333.545 22.21 333.918 22.21C335.365 22.1633 336.555 22.1167 337.488 22.07C338.468 21.9767 339.331 21.86 340.078 21.72C340.871 21.5333 341.688 21.3233 342.528 21.09C342.621 21.0433 342.738 21.02 342.878 21.02C343.018 20.9733 343.135 20.95 343.228 20.95C343.835 20.95 344.138 21.2067 344.138 21.72C344.138 21.7667 344.115 21.86 344.068 22C344.068 22.0933 344.045 22.21 343.998 22.35C343.951 22.49 343.881 22.8867 343.788 23.54C343.741 24.1933 343.671 24.87 343.578 25.57C343.531 26.27 343.508 26.8067 343.508 27.18V43.35C343.508 44.61 343.625 45.52 343.858 46.08C344.138 46.5933 344.441 46.85 344.768 46.85C345.141 46.85 345.678 46.8267 346.378 46.78C347.125 46.6867 347.661 46.64 347.988 46.64C348.221 46.64 348.455 46.6867 348.688 46.78C348.921 46.8733 349.038 47.13 349.038 47.55C349.038 47.9233 348.945 48.18 348.758 48.32C348.571 48.4133 348.338 48.4833 348.058 48.53C346.238 48.7633 344.675 49.1133 343.368 49.58C342.061 50.0467 340.895 50.49 339.868 50.91C339.728 50.9567 339.518 51.0267 339.238 51.12C338.958 51.26 338.701 51.33 338.468 51.33Z" fill="#B59C75"/>
</svg>
