<svg width="44" height="45" viewBox="0 0 44 45" fill="none" xmlns="http://www.w3.org/2000/svg">
<path d="M21.3732 44.9412C28.8723 44.939 21.3727 20.956 21.3727 20.956C21.3727 20.956 13.8742 44.9434 21.3732 44.9412Z" fill="#B59C75"/>
<path d="M21.3732 44.9412C28.8723 44.939 21.3727 20.956 21.3727 20.956C21.3727 20.956 13.8742 44.9434 21.3732 44.9412Z" fill="#B59C75"/>
<path d="M21.3721 0.941177C13.873 0.943394 21.3727 24.9264 21.3727 24.9264C21.3727 24.9264 28.8711 0.938961 21.3721 0.941177Z" fill="#B59C75"/>
<path d="M21.3721 0.941177C13.873 0.943394 21.3727 24.9264 21.3727 24.9264C21.3727 24.9264 28.8711 0.938961 21.3721 0.941177Z" fill="#B59C75"/>
<path d="M40.425 33.9407C44.1726 27.4452 19.6529 21.9486 19.6529 21.9486C19.6529 21.9486 36.6774 40.4361 40.425 33.9407Z" fill="#B59C75"/>
<path d="M40.425 33.9407C44.1726 27.4452 19.6529 21.9486 19.6529 21.9486C19.6529 21.9486 36.6774 40.4361 40.425 33.9407Z" fill="#B59C75"/>
<path d="M2.31933 11.9417C-1.42826 18.4372 23.0914 23.9338 23.0914 23.9338C23.0914 23.9338 6.06693 5.44625 2.31933 11.9417Z" fill="#B59C75"/>
<path d="M2.31933 11.9417C-1.42826 18.4372 23.0914 23.9338 23.0914 23.9338C23.0914 23.9338 6.06693 5.44625 2.31933 11.9417Z" fill="#B59C75"/>
<path d="M2.32087 33.9417C6.0723 40.4349 23.0924 21.9486 23.0924 21.9486C23.0924 21.9486 -1.43057 27.4484 2.32087 33.9417Z" fill="#B59C75"/>
<path d="M2.32087 33.9417C6.0723 40.4349 23.0924 21.9486 23.0924 21.9486C23.0924 21.9486 -1.43057 27.4484 2.32087 33.9417Z" fill="#B59C75"/>
<path d="M40.4254 11.9407C36.674 5.44741 19.6539 23.9338 19.6539 23.9338C19.6539 23.9338 44.1768 18.4339 40.4254 11.9407Z" fill="#B59C75"/>
<path d="M40.4254 11.9407C36.674 5.44741 19.6539 23.9338 19.6539 23.9338C19.6539 23.9338 44.1768 18.4339 40.4254 11.9407Z" fill="#B59C75"/>
</svg>
