<svg width="582" height="149" viewBox="0 0 582 149" fill="none" xmlns="http://www.w3.org/2000/svg">
<path opacity="0.6" d="M76.47 148.15C66.67 148.15 57.22 146.47 48.12 143.11C39.02 139.75 30.9 134.99 23.76 128.83C16.62 122.53 10.95 115.04 6.74998 106.36C2.68999 97.54 0.659987 87.81 0.659989 77.17C0.65999 66.95 2.82999 57.5 7.16999 48.82C11.51 40.14 17.46 32.58 25.02 26.14C32.58 19.7 41.19 14.73 50.85 11.23C60.65 7.59 70.94 5.77 81.72 5.77001C87.18 5.77001 91.8 5.98001 95.58 6.40001C99.36 6.82002 103 7.45002 106.5 8.29002C110.14 8.99002 114.34 9.97002 119.1 11.23C121.2 11.79 122.67 12.63 123.51 13.75C124.49 14.87 125.05 16.41 125.19 18.37C125.47 21.59 125.82 25.09 126.24 28.87C126.66 32.51 126.94 37.06 127.08 42.52C127.22 43.5 126.73 44.34 125.61 45.04C124.63 45.6 123.51 45.74 122.25 45.46C121.13 45.18 120.36 44.27 119.94 42.73C118.54 37.41 116.93 32.86 115.11 29.08C113.29 25.16 110.56 21.94 106.92 19.42C103.42 17.04 99.15 15.29 94.11 14.17C89.21 12.91 83.89 12.28 78.15 12.28C70.03 12.28 62.47 13.96 55.47 17.32C48.61 20.54 42.66 25.02 37.62 30.76C32.72 36.36 28.87 42.73 26.07 49.87C23.27 57.01 21.87 64.43 21.87 72.13C21.87 80.67 23.2 89.07 25.86 97.33C28.66 105.59 32.58 113.08 37.62 119.8C42.8 126.38 48.89 131.7 55.89 135.76C63.03 139.68 70.94 141.64 79.62 141.64C89.7 141.64 98.03 139.33 104.61 134.71C111.19 130.09 116.79 123.65 121.41 115.39C122.39 113.57 123.79 112.66 125.61 112.66C127.57 112.66 128.55 113.78 128.55 116.02C128.55 117.14 128.27 118.96 127.71 121.48C127.15 123.86 126.38 126.45 125.4 129.25C124.56 131.91 123.72 134.29 122.88 136.39C121.9 138.35 121.06 139.61 120.36 140.17C119.8 140.73 118.4 141.36 116.16 142.06C110.98 144.16 104.75 145.7 97.47 146.68C90.33 147.66 83.33 148.15 76.47 148.15ZM139.462 146.05C137.642 146.05 136.172 145.77 135.052 145.21C133.932 144.79 133.372 144.16 133.372 143.32C133.372 142.34 133.932 141.5 135.052 140.8C136.312 139.96 138.062 139.19 140.302 138.49C143.942 137.37 147.302 135.69 150.382 133.45C153.462 131.21 156.122 127.5 158.362 122.32C162.282 113.36 165.852 104.96 169.072 97.12C172.432 89.28 175.582 81.58 178.522 74.02C181.462 66.46 184.472 58.62 187.552 50.5C190.772 42.24 194.132 33.28 197.632 23.62C198.332 21.66 198.962 19.7 199.522 17.74C200.082 15.78 200.432 13.68 200.572 11.44C201.832 11.02 203.092 10.6 204.352 10.18C205.612 9.76003 206.872 9.13003 208.132 8.29003C209.392 7.45004 210.232 6.19004 210.652 4.51003C211.212 2.83003 211.702 1.71003 212.122 1.15003C212.262 1.01003 212.402 0.940028 212.542 0.940028C212.822 0.940028 213.032 1.08003 213.172 1.36004C213.452 1.92004 213.662 2.62004 213.802 3.46003C214.082 4.30003 214.362 5.14003 214.642 5.98003C218.002 16.62 221.502 27.47 225.142 38.53C228.782 49.59 232.282 60.3 235.642 70.66C239.142 80.88 242.292 90.12 245.092 98.38C248.032 106.5 250.342 113.08 252.022 118.12C253.982 123.72 256.082 127.92 258.322 130.72C260.562 133.52 262.872 135.48 265.252 136.6C267.772 137.72 270.432 138.56 273.232 139.12C275.612 139.54 277.362 140.24 278.482 141.22C279.602 142.06 280.162 142.97 280.162 143.95C280.162 144.79 279.602 145.35 278.482 145.63C277.362 145.91 275.892 146.05 274.072 146.05C272.112 146.05 269.452 145.91 266.092 145.63C262.732 145.49 259.162 145.28 255.382 145C251.602 144.86 248.102 144.79 244.882 144.79C242.222 144.79 239.492 144.79 236.692 144.79C233.892 144.79 231.302 144.86 228.922 145C226.542 145 224.512 145 222.832 145C221.012 145 219.542 144.79 218.422 144.37C217.302 143.95 216.742 143.32 216.742 142.48C216.742 141.5 217.442 140.66 218.842 139.96C220.242 139.26 221.852 138.77 223.672 138.49C228.292 137.79 231.582 136.6 233.542 134.92C235.502 133.24 236.482 131.28 236.482 129.04C236.482 126.94 235.992 123.93 235.012 120.01C234.172 115.95 233.122 111.68 231.862 107.2C230.602 102.58 229.412 98.52 228.292 95.02C228.012 93.9 227.452 93.27 226.612 93.13C225.912 92.85 224.582 92.71 222.622 92.71L182.932 92.71C182.372 92.71 181.742 92.99 181.042 93.55C180.482 93.97 179.922 94.95 179.362 96.49C178.942 97.89 178.242 100.13 177.262 103.21C176.282 106.15 175.302 109.3 174.322 112.66C173.342 116.02 172.502 119.03 171.802 121.69C171.102 124.35 170.752 126.03 170.752 126.73C170.752 129.81 171.942 132.4 174.322 134.5C176.702 136.46 179.572 137.86 182.932 138.7C187.552 139.96 189.862 141.36 189.862 142.9C189.862 143.74 189.302 144.37 188.182 144.79C187.062 145.07 185.592 145.21 183.772 145.21C181.952 145.21 179.292 145.14 175.792 145C172.292 144.86 168.582 144.79 164.662 144.79C160.042 144.79 155.562 145 151.222 145.42C146.882 145.84 142.962 146.05 139.462 146.05ZM188.602 85.78L221.152 85.78C223.112 85.78 224.092 85.43 224.092 84.73C224.092 84.45 224.022 84.17 223.882 83.89C223.882 83.47 223.812 83.05 223.672 82.63L207.292 31.39C206.452 28.87 205.822 27.61 205.402 27.61C205.122 27.61 204.562 28.8 203.722 31.18L184.612 82.63C184.332 83.47 184.192 84.03 184.192 84.31C184.192 85.01 184.542 85.43 185.242 85.57C186.082 85.71 187.202 85.78 188.602 85.78ZM290.742 146.05C288.922 146.05 287.452 145.77 286.332 145.21C285.352 144.79 284.862 144.23 284.862 143.53C284.862 142.27 285.492 141.43 286.752 141.01C288.152 140.45 289.062 140.1 289.482 139.96C294.942 138.84 299.142 137.23 302.082 135.13C305.022 132.89 306.492 129.46 306.492 124.84L306.492 27.4001C306.492 24.04 306.142 21.59 305.442 20.05C304.742 18.37 303.482 17.18 301.662 16.48C299.842 15.64 297.182 14.94 293.682 14.38C289.062 13.54 286.752 12.14 286.752 10.18C286.752 9.34005 287.312 8.78005 288.432 8.50004C289.552 8.08004 291.022 7.87004 292.842 7.87004C296.622 7.87004 299.632 7.94005 301.872 8.08005C304.252 8.22005 306.492 8.36005 308.592 8.50005C310.692 8.50005 313.282 8.50005 316.362 8.50005C319.862 8.50005 322.872 8.50005 325.392 8.50005C327.912 8.36005 330.502 8.22006 333.162 8.08006C335.822 7.94005 339.042 7.87005 342.822 7.87005C344.642 7.87005 346.112 8.08005 347.232 8.50005C348.352 8.78006 348.912 9.34006 348.912 10.1801C348.912 11.1601 348.352 12.0001 347.232 12.7001C346.112 13.4001 344.362 13.9601 341.982 14.3801C336.802 15.3601 332.392 16.5501 328.752 17.9501C325.112 19.2101 323.292 21.8701 323.292 25.9301L323.292 124.84C323.292 129.18 324.272 132.4 326.232 134.5C328.192 136.6 332.602 137.65 339.462 137.65L365.502 137.65C369.282 137.65 372.572 137.09 375.372 135.97C378.312 134.71 380.482 133.45 381.882 132.19C384.682 129.81 386.712 127.71 387.972 125.89C389.372 123.93 390.982 121.06 392.802 117.28C393.082 116.44 393.642 115.18 394.482 113.5C395.462 111.82 396.442 110.98 397.422 110.98C398.262 110.98 398.892 111.4 399.312 112.24C399.732 113.08 399.942 113.92 399.942 114.76C399.942 114.9 399.872 115.11 399.732 115.39C399.732 115.53 399.732 115.67 399.732 115.81C398.752 119.45 397.842 122.74 397.002 125.68C396.302 128.62 395.672 131.42 395.112 134.08C394.692 136.74 394.342 139.54 394.062 142.48C393.922 143.46 393.642 144.3 393.222 145C392.942 145.7 392.242 146.05 391.122 146.05C384.122 146.05 377.402 145.98 370.962 145.84C364.522 145.7 358.292 145.56 352.272 145.42C346.392 145.42 340.722 145.35 335.262 145.21C329.802 145.07 324.412 145 319.092 145C315.592 145 311.602 145.07 307.122 145.21C302.782 145.35 298.932 145.49 295.572 145.63C292.352 145.91 290.742 146.05 290.742 146.05ZM409.809 146.05C407.989 146.05 406.519 145.84 405.399 145.42C404.279 145.14 403.719 144.58 403.719 143.74C403.719 142.76 404.279 141.99 405.399 141.43C406.519 140.87 408.269 140.38 410.649 139.96C414.149 139.26 417.019 137.58 419.259 134.92C421.499 132.26 422.969 128.48 423.669 123.58C425.349 110.98 426.819 99.0101 428.079 87.6701C429.339 76.1901 430.319 65.9001 431.019 56.8001C431.859 47.5601 432.279 40.0001 432.279 34.1201C432.279 33.0001 432.279 31.8101 432.279 30.5501C432.279 29.2901 432.209 28.1701 432.069 27.1901C431.929 26.0701 431.719 24.9501 431.439 23.8301C431.159 22.5701 430.319 21.3801 428.919 20.2601C426.399 18.1601 423.949 16.7601 421.569 16.0601C419.189 15.2201 416.389 14.5201 413.169 13.9601C411.769 13.6801 410.649 13.1901 409.809 12.4901C408.969 11.6501 408.549 10.7401 408.549 9.76006C408.549 8.64007 409.179 8.01007 410.439 7.87006C411.839 7.59007 413.589 7.45007 415.689 7.45007C417.089 7.45007 419.189 7.52007 421.989 7.66007C424.929 7.80006 428.079 8.01007 431.439 8.29007C434.799 8.57007 437.879 8.78007 440.679 8.92008C443.619 9.06008 445.789 9.13008 447.189 9.13008C448.169 9.13008 449.009 9.41008 449.709 9.97008C450.409 10.5301 450.899 11.3701 451.179 12.4901C451.879 15.0101 452.579 17.6701 453.279 20.4701C453.979 23.2701 454.819 26.0001 455.799 28.6601L488.979 112.87C489.399 113.85 490.169 114.48 491.289 114.76C492.409 114.9 493.249 114.48 493.809 113.5L535.179 27.4001C535.879 25.0201 536.579 22.3601 537.279 19.4201C537.979 16.4801 538.539 13.8901 538.959 11.6501C539.379 9.83009 540.079 8.9201 541.059 8.9201L548.619 8.9201C552.819 8.9201 557.229 8.6401 561.849 8.0801C566.609 7.5201 570.179 7.2401 572.559 7.2401C573.259 7.2401 574.169 7.3801 575.289 7.66009C576.409 7.80009 576.969 8.36009 576.969 9.3401C576.969 10.3201 576.549 11.0901 575.709 11.6501C575.009 12.2101 573.609 12.9101 571.509 13.7501C569.689 14.4501 567.659 15.2201 565.419 16.0601C563.179 16.9001 561.079 17.7401 559.119 18.5801C557.719 19.1401 556.529 20.1201 555.549 21.5201C554.569 22.7801 554.079 24.1801 554.079 25.7201C554.079 35.5201 554.219 44.7601 554.499 53.4401C554.919 61.9801 555.339 70.2401 555.759 78.2201C556.179 86.0601 556.669 93.8301 557.229 101.53C557.789 109.23 558.279 117.07 558.699 125.05C558.979 129.39 560.379 132.75 562.899 135.13C565.419 137.37 569.269 138.98 574.449 139.96C576.829 140.38 578.579 140.87 579.699 141.43C580.819 141.99 581.379 142.76 581.379 143.74C581.379 144.58 580.819 145.14 579.699 145.42C578.579 145.84 577.109 146.05 575.289 146.05C571.509 146.05 568.359 145.91 565.839 145.63C563.459 145.49 561.149 145.35 558.909 145.21C556.669 145.07 553.939 145 550.719 145C547.919 145 545.539 145.07 543.579 145.21C541.759 145.35 539.729 145.49 537.489 145.63C535.389 145.91 532.449 146.05 528.669 146.05C526.849 146.05 525.379 145.84 524.259 145.42C523.139 145.14 522.579 144.58 522.579 143.74C522.579 142.76 523.139 141.99 524.259 141.43C525.379 140.73 527.129 140.24 529.509 139.96C533.569 139.4 536.369 138 537.909 135.76C539.449 133.38 540.219 129.74 540.219 124.84C540.219 114.76 540.079 105.66 539.799 97.5401C539.659 89.4201 539.379 81.4401 538.959 73.6001C538.539 65.6201 538.119 56.9401 537.699 47.5601C537.559 46.0201 537.139 45.3201 536.439 45.4601C535.739 45.4601 535.039 46.1601 534.339 47.5601L486.039 146.05C485.759 146.75 485.129 147.1 484.149 147.1C483.169 147.24 482.539 146.82 482.259 145.84C476.799 129.46 470.919 113.36 464.619 97.5401C458.459 81.5801 451.459 64.4301 443.619 46.0901C443.339 45.3901 442.849 45.0401 442.149 45.0401C441.449 45.0401 441.029 45.3901 440.889 46.0901C439.629 55.8901 438.439 64.9201 437.319 73.1801C436.339 81.3001 435.569 89.3501 435.009 97.3301C434.449 105.31 434.169 114.06 434.169 123.58C434.169 127.36 435.359 130.86 437.739 134.08C440.119 137.16 443.479 139.12 447.819 139.96C450.199 140.38 451.949 140.87 453.069 141.43C454.189 141.99 454.749 142.76 454.749 143.74C454.749 144.58 454.189 145.14 453.069 145.42C451.949 145.84 450.479 146.05 448.659 146.05C444.879 146.05 442.009 145.91 440.049 145.63C438.229 145.49 436.549 145.35 435.009 145.21C433.609 145.07 431.579 145 428.919 145C426.399 145 424.439 145.07 423.039 145.21C421.639 145.35 420.029 145.49 418.209 145.63C416.389 145.91 413.589 146.05 409.809 146.05Z" fill="#F5E0E9"/>
</svg>
