<svg width="549" height="145" viewBox="0 0 549 145" fill="none" xmlns="http://www.w3.org/2000/svg">
<path opacity="0.6" d="M6.03598 141.02C4.26798 141.02 2.83998 140.816 1.75198 140.408C0.663977 140.136 0.119977 139.592 0.119977 138.776C0.119977 137.144 2.36398 135.92 6.85198 135.104C12.02 134.152 15.556 132.588 17.46 130.412C19.5 128.236 20.52 124.632 20.52 119.6L20.52 33.512C20.52 27.392 19.704 22.7 18.072 19.436C16.576 16.172 13.244 14.064 8.076 13.112C5.764 12.704 4.064 12.16 2.976 11.48C1.888 10.8 1.344 9.98399 1.344 9.032C1.344 8.216 1.888 7.672 2.976 7.39999C4.064 6.99199 5.492 6.78799 7.26 6.78799C12.292 6.78799 16.508 6.856 19.908 6.992C23.444 7.128 26.912 7.264 30.312 7.4C33.712 7.4 37.724 7.4 42.348 7.4C46.292 7.4 50.508 7.4 54.996 7.4C59.484 7.4 63.836 7.4 68.052 7.40001C72.404 7.40001 76.212 7.06001 79.476 6.38001C82.876 5.70001 85.8 5.36001 88.248 5.36001C88.928 5.36001 89.676 5.49601 90.492 5.76801C91.308 6.04001 91.784 6.51601 91.92 7.19601C92.192 8.69201 92.396 10.936 92.532 13.928C92.668 16.784 92.736 19.572 92.736 22.292C92.872 25.012 92.94 26.848 92.94 27.8C92.94 30.656 92.328 32.084 91.104 32.084C90.424 32.084 89.812 31.88 89.268 31.472C88.724 30.928 88.316 30.316 88.044 29.636C87.5 27.324 86.82 25.352 86.004 23.72C85.188 21.952 84.304 20.592 83.352 19.64C81.448 17.464 79.34 16.036 77.028 15.356C74.716 14.54 72.268 14.132 69.684 14.132L43.776 14.132C40.648 14.132 38.744 15.152 38.064 17.192C37.384 19.232 36.976 21.612 36.84 24.332C36.704 26.916 36.636 30.112 36.636 33.92C36.636 37.592 36.636 41.196 36.636 44.732C36.636 48.132 36.636 51.6 36.636 55.136C36.636 58.672 36.704 61.664 36.84 64.112C36.84 65.2 36.908 66.22 37.044 67.172C37.316 68.124 37.928 68.6 38.88 68.6C43.232 68.6 47.652 68.532 52.14 68.396C56.628 68.124 60.096 67.988 62.544 67.988C65.536 67.988 68.12 67.172 70.296 65.54C72.472 63.908 74.036 61.936 74.988 59.624C75.26 59.08 75.804 58.4 76.62 57.584C77.436 56.632 78.116 56.156 78.66 56.156C79.204 56.156 79.816 56.496 80.496 57.176C81.176 57.72 81.448 58.468 81.312 59.42C81.176 61.732 81.04 63.772 80.904 65.54C80.768 67.308 80.7 69.008 80.7 70.64C80.7 72.68 80.768 74.788 80.904 76.964C81.04 79.004 81.176 81.52 81.312 84.512C81.312 85.464 81.176 86.28 80.904 86.96C80.768 87.64 80.292 87.98 79.476 87.98C78.116 87.98 77.028 87.368 76.212 86.144C75.532 84.92 75.056 83.968 74.784 83.288C73.832 80.16 72.404 78.052 70.5 76.964C68.596 75.74 66.828 75.128 65.196 75.128C63.428 75.128 61.66 75.128 59.892 75.128C58.26 74.992 56.628 74.924 54.996 74.924C52.684 74.924 50.44 74.924 48.264 74.924C46.088 74.924 43.912 75.06 41.736 75.332C40.376 75.468 39.22 75.944 38.268 76.76C37.316 77.44 36.84 78.664 36.84 80.432C36.84 86.688 36.84 93.08 36.84 99.608C36.976 106 37.18 112.596 37.452 119.396C37.724 123.748 38.744 127.216 40.512 129.8C42.416 132.384 45.884 134.152 50.916 135.104C53.228 135.512 54.928 135.988 56.016 136.532C57.104 137.076 57.648 137.824 57.648 138.776C57.648 139.592 57.104 140.136 56.016 140.408C54.928 140.816 53.5 141.02 51.732 141.02C48.06 141.02 45.204 140.884 43.164 140.612C41.26 140.34 39.492 140.136 37.86 140C36.364 139.728 34.324 139.592 31.74 139.592C28.476 139.592 25.552 139.728 22.968 140C20.52 140.136 18.004 140.34 15.42 140.612C12.836 140.884 9.70798 141.02 6.03598 141.02ZM90.5988 141.02C88.8308 141.02 87.4028 140.748 86.3148 140.204C85.2268 139.796 84.6828 139.184 84.6828 138.368C84.6828 137.416 85.2268 136.6 86.3148 135.92C87.5388 135.104 89.2388 134.356 91.4148 133.676C94.9508 132.588 98.2148 130.956 101.207 128.78C104.199 126.604 106.783 123 108.959 117.968C112.767 109.264 116.235 101.104 119.363 93.488C122.627 85.872 125.687 78.392 128.543 71.048C131.399 63.704 134.323 56.088 137.315 48.2C140.443 40.176 143.707 31.472 147.107 22.088C147.787 20.184 148.399 18.28 148.943 16.376C149.487 14.472 149.827 12.432 149.963 10.256C151.187 9.84802 152.411 9.44002 153.635 9.03202C154.859 8.62402 156.083 8.01202 157.307 7.19602C158.531 6.38003 159.347 5.15603 159.755 3.52402C160.299 1.89202 160.775 0.804018 161.183 0.260017C161.319 0.124018 161.455 0.0560193 161.591 0.0560193C161.863 0.0560193 162.067 0.192022 162.203 0.464026C162.475 1.00803 162.679 1.68803 162.815 2.50402C163.087 3.32002 163.359 4.13602 163.631 4.95202C166.895 15.288 170.295 25.828 173.831 36.572C177.367 47.316 180.767 57.72 184.031 67.784C187.431 77.712 190.491 86.688 193.211 94.712C196.067 102.6 198.311 108.992 199.943 113.888C201.847 119.328 203.887 123.408 206.063 126.128C208.239 128.848 210.483 130.752 212.795 131.84C215.243 132.928 217.827 133.744 220.547 134.288C222.859 134.696 224.559 135.376 225.647 136.328C226.735 137.144 227.279 138.028 227.279 138.98C227.279 139.796 226.735 140.34 225.647 140.612C224.559 140.884 223.131 141.02 221.363 141.02C219.459 141.02 216.875 140.884 213.611 140.612C210.347 140.476 206.879 140.272 203.207 140C199.535 139.864 196.135 139.796 193.007 139.796C190.423 139.796 187.771 139.796 185.051 139.796C182.331 139.796 179.815 139.864 177.503 140C175.191 140 173.219 140 171.587 140C169.819 140 168.391 139.796 167.303 139.388C166.215 138.98 165.671 138.368 165.671 137.552C165.671 136.6 166.351 135.784 167.711 135.104C169.071 134.424 170.635 133.948 172.403 133.676C176.891 132.996 180.087 131.84 181.991 130.208C183.895 128.576 184.847 126.672 184.847 124.496C184.847 122.456 184.371 119.532 183.419 115.724C182.603 111.78 181.583 107.632 180.359 103.28C179.135 98.792 177.979 94.848 176.891 91.448C176.619 90.36 176.075 89.748 175.259 89.612C174.579 89.34 173.287 89.204 171.383 89.204L132.827 89.204C132.283 89.204 131.671 89.476 130.991 90.02C130.447 90.428 129.903 91.38 129.359 92.876C128.951 94.236 128.271 96.412 127.319 99.404C126.367 102.26 125.415 105.32 124.463 108.584C123.511 111.848 122.695 114.772 122.015 117.356C121.335 119.94 120.995 121.572 120.995 122.252C120.995 125.244 122.151 127.76 124.463 129.8C126.775 131.704 129.563 133.064 132.827 133.88C137.315 135.104 139.559 136.464 139.559 137.96C139.559 138.776 139.015 139.388 137.927 139.796C136.839 140.068 135.411 140.204 133.643 140.204C131.875 140.204 129.291 140.136 125.891 140C122.491 139.864 118.887 139.796 115.079 139.796C110.591 139.796 106.239 140 102.023 140.408C97.8068 140.816 93.9988 141.02 90.5988 141.02ZM138.335 82.472L169.955 82.472C171.859 82.472 172.811 82.132 172.811 81.452C172.811 81.18 172.743 80.908 172.607 80.636C172.607 80.228 172.539 79.82 172.403 79.412L156.491 29.636C155.675 27.188 155.063 25.964 154.655 25.964C154.383 25.964 153.839 27.12 153.023 29.432L134.459 79.412C134.187 80.228 134.051 80.772 134.051 81.044C134.051 81.724 134.391 82.132 135.071 82.268C135.887 82.404 136.975 82.472 138.335 82.472ZM356.285 144.284C352.477 144.284 348.873 143.944 345.473 143.264C342.073 142.72 338.945 141.632 336.089 140C333.233 138.368 330.581 136.124 328.133 133.268C324.869 129.188 321.741 125.312 318.749 121.64C315.757 117.832 312.561 113.48 309.161 108.584C305.897 103.688 301.885 97.4321 297.125 89.8161C295.085 86.416 292.161 83.764 288.353 81.86C285.361 80.364 282.369 79.344 279.377 78.8C276.521 78.12 274.141 77.712 272.237 77.576C271.149 77.44 270.333 77.78 269.789 78.596C269.381 79.412 269.177 80.432 269.177 81.656L269.177 117.56C269.177 121.912 270.197 125.72 272.237 128.984C274.277 132.112 277.813 134.152 282.845 135.104C285.157 135.512 286.857 135.988 287.945 136.532C289.033 137.076 289.577 137.824 289.577 138.776C289.577 139.592 289.033 140.136 287.945 140.408C286.857 140.816 285.429 141.02 283.661 141.02C279.989 141.02 277.133 140.884 275.093 140.612C273.189 140.34 271.421 140.136 269.789 140C268.293 139.728 266.253 139.592 263.669 139.592C260.269 139.592 257.209 139.728 254.489 140C251.905 140.136 249.253 140.34 246.533 140.612C243.949 140.884 240.821 141.02 237.149 141.02C235.381 141.02 233.953 140.816 232.865 140.408C231.777 140.136 231.233 139.592 231.233 138.776C231.233 137.144 233.477 135.92 237.965 135.104C243.133 134.152 246.873 132.588 249.185 130.412C251.633 128.236 252.857 124.632 252.857 119.6L252.857 32.696C252.857 27.528 252.585 23.652 252.041 21.068C251.633 18.348 250.545 16.444 248.777 15.356C247.145 14.268 244.357 13.52 240.413 13.112C238.101 12.84 236.401 12.364 235.313 11.684C234.225 10.868 233.681 9.98403 233.681 9.03204C233.681 8.21604 234.225 7.67204 235.313 7.40003C236.401 6.99203 237.829 6.78803 239.597 6.78803C243.269 6.78803 245.989 6.78803 247.757 6.78803C249.661 6.78803 251.429 6.85604 253.061 6.99204C254.693 6.99204 256.869 6.99204 259.589 6.99204C262.173 6.99204 264.485 6.92404 266.525 6.78804C268.565 6.51604 270.809 6.31204 273.257 6.17605C275.841 6.04005 279.105 5.97205 283.049 5.97205C298.009 5.97205 309.365 8.76005 317.117 14.336C325.005 19.912 328.949 28.2761 328.949 39.4281C328.949 45.5481 327.725 50.8521 325.277 55.3401C322.829 59.6921 319.769 63.3641 316.097 66.356C312.425 69.3481 308.685 71.7961 304.877 73.7001C304.333 73.8361 304.061 74.1761 304.061 74.72C304.197 75.1281 304.469 75.6721 304.877 76.3521C309.093 82.7441 313.105 88.7961 316.913 94.5081C320.857 100.22 325.141 105.796 329.765 111.236C334.389 116.676 339.897 122.32 346.289 128.168C349.825 131.296 353.429 133.2 357.101 133.88C360.773 134.56 364.989 134.9 369.749 134.9C371.789 134.9 372.809 135.648 372.809 137.144C372.809 139.184 371.789 140.68 369.749 141.632C367.709 142.72 365.397 143.4 362.813 143.672C360.229 144.08 358.053 144.284 356.285 144.284ZM279.989 72.884C286.245 72.884 291.617 71.456 296.105 68.6C300.729 65.744 304.265 62.004 306.713 57.38C309.297 52.7561 310.589 47.8601 310.589 42.692C310.589 37.1161 309.841 32.0161 308.345 27.392C306.985 22.768 304.129 19.0961 299.777 16.3761C295.561 13.52 289.169 12.092 280.601 12.092C276.249 12.092 273.393 13.52 272.033 16.376C270.673 19.096 269.857 23.992 269.585 31.064C269.449 34.464 269.313 39.088 269.177 44.936C269.177 50.648 269.177 57.584 269.177 65.744C269.177 69.144 270.129 71.184 272.033 71.864C273.937 72.544 276.589 72.884 279.989 72.884ZM381.559 141.02C379.791 141.02 378.363 140.816 377.275 140.408C376.187 140.136 375.643 139.592 375.643 138.776C375.643 137.824 376.187 137.076 377.275 136.532C378.363 135.988 380.063 135.512 382.375 135.104C385.775 134.424 388.563 132.792 390.739 130.208C392.915 127.624 394.343 123.952 395.023 119.192C396.655 106.952 398.083 95.3241 399.307 84.3081C400.531 73.1561 401.483 63.1601 402.163 54.3201C402.979 45.3441 403.387 38.0001 403.387 32.2881C403.387 31.2001 403.387 30.0441 403.387 28.8201C403.387 27.5961 403.319 26.5081 403.183 25.5561C403.047 24.4681 402.843 23.3801 402.571 22.2921C402.299 21.0681 401.483 19.9121 400.123 18.8241C397.675 16.7841 395.295 15.4241 392.983 14.7441C390.671 13.9281 387.951 13.2481 384.823 12.7041C383.463 12.4321 382.375 11.9561 381.559 11.2761C380.743 10.4601 380.335 9.57606 380.335 8.62406C380.335 7.53606 380.947 6.92406 382.171 6.78806C383.531 6.51606 385.231 6.38006 387.271 6.38006C388.631 6.38006 390.671 6.44806 393.391 6.58406C396.247 6.72006 399.307 6.92406 402.571 7.19607C405.835 7.46806 408.827 7.67207 411.547 7.80807C414.403 7.94407 416.511 8.01207 417.871 8.01207C418.823 8.01207 419.639 8.28407 420.319 8.82807C420.999 9.37207 421.475 10.1881 421.747 11.2761C422.427 13.7241 423.107 16.3081 423.787 19.0281C424.467 21.7481 425.283 24.4001 426.235 26.9841L458.467 108.788C458.875 109.74 459.623 110.352 460.711 110.624C461.799 110.76 462.615 110.352 463.159 109.4L503.347 25.7601C504.027 23.4481 504.707 20.8641 505.387 18.0081C506.067 15.1521 506.611 12.6361 507.019 10.4601C507.427 8.69209 508.107 7.80809 509.059 7.80809L516.403 7.80809C520.483 7.80809 524.767 7.53609 529.255 6.99209C533.879 6.44809 537.347 6.17609 539.659 6.17609C540.339 6.17609 541.223 6.31209 542.311 6.58409C543.399 6.72009 543.943 7.26409 543.943 8.21609C543.943 9.16809 543.535 9.91608 542.719 10.4601C542.039 11.0041 540.679 11.6841 538.639 12.5001C536.871 13.1801 534.899 13.9281 532.723 14.7441C530.547 15.5601 528.507 16.3761 526.603 17.1921C525.243 17.7361 524.087 18.6881 523.135 20.0481C522.183 21.2721 521.707 22.6321 521.707 24.1281C521.707 33.6481 521.843 42.6241 522.115 51.0561C522.523 59.3521 522.931 67.3761 523.339 75.1281C523.747 82.7441 524.223 90.2921 524.767 97.7721C525.311 105.252 525.787 112.868 526.195 120.62C526.467 124.836 527.827 128.1 530.275 130.412C532.723 132.588 536.463 134.152 541.495 135.104C543.807 135.512 545.507 135.988 546.595 136.532C547.683 137.076 548.227 137.824 548.227 138.776C548.227 139.592 547.683 140.136 546.595 140.408C545.507 140.816 544.079 141.02 542.311 141.02C538.639 141.02 535.579 140.884 533.131 140.612C530.819 140.476 528.575 140.34 526.399 140.204C524.223 140.068 521.571 140 518.443 140C515.723 140 513.411 140.068 511.507 140.204C509.739 140.34 507.767 140.476 505.591 140.612C503.551 140.884 500.695 141.02 497.023 141.02C495.255 141.02 493.827 140.816 492.739 140.408C491.651 140.136 491.107 139.592 491.107 138.776C491.107 137.824 491.651 137.076 492.739 136.532C493.827 135.852 495.527 135.376 497.839 135.104C501.783 134.56 504.503 133.2 505.999 131.024C507.495 128.712 508.243 125.176 508.243 120.416C508.243 110.624 508.107 101.784 507.835 93.8961C507.699 86.0081 507.427 78.2561 507.019 70.6401C506.611 62.8881 506.203 54.4561 505.795 45.3441C505.659 43.8481 505.251 43.1681 504.571 43.3041C503.891 43.3041 503.211 43.9841 502.531 45.3441L455.611 141.02C455.339 141.7 454.727 142.04 453.775 142.04C452.823 142.176 452.211 141.768 451.939 140.816C446.635 124.904 440.923 109.264 434.803 93.8961C428.819 78.3921 422.019 61.7321 414.403 43.9161C414.131 43.2361 413.655 42.8961 412.975 42.8961C412.295 42.8961 411.887 43.2361 411.751 43.9161C410.527 53.4361 409.371 62.2081 408.283 70.2321C407.331 78.1201 406.583 85.9401 406.039 93.6921C405.495 101.444 405.223 109.944 405.223 119.192C405.223 122.864 406.379 126.264 408.691 129.392C411.003 132.384 414.267 134.288 418.483 135.104C420.795 135.512 422.495 135.988 423.583 136.532C424.671 137.076 425.215 137.824 425.215 138.776C425.215 139.592 424.671 140.136 423.583 140.408C422.495 140.816 421.067 141.02 419.299 141.02C415.627 141.02 412.839 140.884 410.935 140.612C409.167 140.476 407.535 140.34 406.039 140.204C404.679 140.068 402.707 140 400.123 140C397.675 140 395.771 140.068 394.411 140.204C393.051 140.34 391.487 140.476 389.719 140.612C387.951 140.884 385.231 141.02 381.559 141.02Z" fill="#CFECDE"/>
</svg>
