<svg width="567" height="163" viewBox="0 0 567 163" fill="none" xmlns="http://www.w3.org/2000/svg">
<path opacity="0.6" d="M7.19997 159.2C5.11997 159.2 3.43997 158.88 2.15997 158.24C1.03997 157.76 0.479973 157.12 0.479973 156.32C0.479973 154.88 1.19997 153.92 2.63997 153.44C4.23997 152.8 5.27997 152.4 5.75997 152.24C12 150.96 16.8 149.12 20.16 146.72C23.52 144.16 25.2 140.24 25.2 134.96L25.2 23.6C25.2 19.76 24.8 16.96 24 15.2C23.2 13.28 21.76 11.92 19.68 11.12C17.6 10.16 14.56 9.36 10.56 8.71999C5.28 7.76 2.64 6.16 2.64 3.92C2.64 2.96 3.28 2.32 4.56 1.99999C5.84 1.51999 7.52 1.27999 9.6 1.27999C13.92 1.27999 17.36 1.35999 19.92 1.52C22.64 1.68 25.2 1.84 27.6 2C30 2 32.96 2 36.48 2C40.48 2 43.92 2 46.8 2C49.68 1.84 52.64 1.68001 55.68 1.52001C58.72 1.36 62.4 1.28 66.72 1.28C68.8 1.28 70.48 1.52 71.76 2.00001C73.04 2.32001 73.68 2.96001 73.68 3.92001C73.68 5.04 73.04 6 71.76 6.8C70.48 7.60001 68.48 8.24001 65.76 8.72C59.84 9.84001 54.8 11.2 50.64 12.8C46.48 14.24 44.4 17.28 44.4 21.92L44.4 134.96C44.4 139.92 45.52 143.6 47.76 146C50 148.4 55.04 149.6 62.88 149.6L92.64 149.6C96.96 149.6 100.72 148.96 103.92 147.68C107.28 146.24 109.76 144.8 111.36 143.36C114.56 140.64 116.88 138.24 118.32 136.16C119.92 133.92 121.76 130.64 123.84 126.32C124.16 125.36 124.8 123.92 125.76 122C126.88 120.08 128 119.12 129.12 119.12C130.08 119.12 130.8 119.6 131.28 120.56C131.76 121.52 132 122.48 132 123.44C132 123.6 131.92 123.84 131.76 124.16C131.76 124.32 131.76 124.48 131.76 124.64C130.64 128.8 129.6 132.56 128.64 135.92C127.84 139.28 127.12 142.48 126.48 145.52C126 148.56 125.6 151.76 125.28 155.12C125.12 156.24 124.8 157.2 124.32 158C124 158.8 123.2 159.2 121.92 159.2C113.92 159.2 106.24 159.12 98.88 158.96C91.52 158.8 84.4 158.64 77.52 158.48C70.8 158.48 64.32 158.4 58.08 158.24C51.84 158.08 45.68 158 39.6 158C35.6 158 31.04 158.08 25.92 158.24C20.96 158.4 16.56 158.56 12.72 158.72C9.03997 159.04 7.19997 159.2 7.19997 159.2ZM140.876 159.2C138.796 159.2 137.116 158.96 135.836 158.48C134.556 158.16 133.916 157.52 133.916 156.56C133.916 154.64 136.556 153.2 141.836 152.24C147.916 151.12 152.556 149.28 155.756 146.72C158.956 144.16 160.556 140.08 160.556 134.48L160.556 26C160.556 20.4 159.356 16.4 156.956 14C154.716 11.6 150.556 9.84002 144.476 8.72002C139.196 7.76002 136.556 6.16002 136.556 3.92002C136.556 2.96002 137.196 2.32002 138.476 2.00002C139.756 1.52001 141.436 1.28001 143.516 1.28001C147.836 1.28001 151.356 1.36002 154.076 1.52003C156.956 1.68002 159.676 1.84002 162.236 2.00002C164.796 2.00002 167.916 2.00002 171.596 2.00002C175.116 2.00002 177.996 2.00002 180.236 2.00002C182.476 1.84003 184.876 1.68003 187.436 1.52003C189.996 1.36002 193.436 1.28002 197.756 1.28002C199.836 1.28002 201.516 1.52002 202.796 2.00003C204.076 2.32003 204.716 2.96003 204.716 3.92003C204.716 5.04003 204.076 6.00002 202.796 6.80002C201.516 7.60003 199.516 8.24003 196.796 8.72003C190.876 9.84003 186.556 11.6 183.836 14C181.116 16.4 179.756 20.4 179.756 26L179.756 134.48C179.756 140.08 181.436 144.16 184.796 146.72C188.156 149.28 192.796 151.12 198.716 152.24C201.436 152.72 203.436 153.28 204.716 153.92C205.996 154.56 206.636 155.44 206.636 156.56C206.636 157.52 205.996 158.16 204.716 158.48C203.436 158.96 201.756 159.2 199.676 159.2C195.356 159.2 191.756 159.04 188.876 158.72C186.156 158.56 183.516 158.4 180.956 158.24C178.396 158.08 175.276 158 171.596 158C167.596 158 164.076 158.08 161.036 158.24C158.156 158.4 155.116 158.56 151.916 158.72C148.876 159.04 145.196 159.2 140.876 159.2ZM371.239 162.08C369.799 162.08 366.919 160.88 362.599 158.48C358.439 156.08 354.439 152.24 350.599 146.96C349.959 146.16 347.959 143.76 344.599 139.76C341.399 135.76 337.239 130.8 332.119 124.88C327.159 118.8 321.719 112.24 315.799 105.2C309.879 98.1601 303.959 91.1201 298.039 84.08C292.119 77.04 286.599 70.56 281.479 64.64C276.359 58.56 272.039 53.52 268.519 49.52C265.159 45.36 263.079 42.8 262.279 41.84C261.159 40.4 260.199 39.44 259.399 38.96C258.599 38.32 257.879 38 257.239 38C256.439 38 255.879 38.64 255.559 39.92C255.239 41.04 255.079 42.08 255.079 43.04C254.919 50.88 254.759 59.92 254.599 70.16C254.439 80.4 254.279 90.96 254.119 101.84C253.959 112.72 253.879 123.12 253.879 133.04C253.879 137.36 254.919 141.36 256.999 145.04C259.239 148.72 263.319 151.12 269.239 152.24C271.959 152.72 273.959 153.28 275.239 153.92C276.519 154.56 277.159 155.44 277.159 156.56C277.159 157.52 276.519 158.16 275.239 158.48C273.959 158.96 272.279 159.2 270.199 159.2C265.879 159.2 262.599 159.04 260.359 158.72C258.279 158.56 256.359 158.4 254.599 158.24C252.999 158.08 250.679 158 247.639 158C244.759 158 242.519 158.08 240.919 158.24C239.319 158.4 237.479 158.56 235.399 158.72C233.319 159.04 230.119 159.2 225.799 159.2C223.719 159.2 222.039 158.96 220.759 158.48C219.479 158.16 218.839 157.52 218.839 156.56C218.839 155.44 219.479 154.56 220.759 153.92C222.039 153.28 224.039 152.64 226.759 152C231.399 150.72 234.759 148.4 236.839 145.04C238.919 141.52 240.199 137.28 240.679 132.32C241.319 126.24 241.959 118.24 242.599 108.32C243.239 98.24 243.799 87.04 244.279 74.72C244.759 62.24 244.999 49.44 244.999 36.32C244.999 27.84 242.759 21.76 238.279 18.08C233.959 14.4 228.279 11.44 221.239 9.20004C220.599 8.88003 219.159 8.24003 216.919 7.28003C214.839 6.16003 213.799 4.88003 213.799 3.44003C213.799 2.00003 214.519 1.12003 215.959 0.800031C217.399 0.320028 218.519 0.0800268 219.319 0.0800269C223.959 0.240035 227.719 0.400039 230.599 0.560037C233.479 0.560038 236.039 0.640037 238.279 0.800035C240.519 0.960034 242.999 1.12003 245.719 1.28003C248.439 1.28003 251.959 1.28003 256.279 1.28003C257.719 1.28003 258.839 1.68004 259.639 2.48005C260.439 3.28005 261.239 4.24004 262.039 5.36004C262.679 6.32004 264.759 9.04003 268.279 13.52C271.959 17.84 276.439 23.36 281.719 30.08C287.159 36.64 293.079 43.84 299.479 51.68C305.879 59.3601 312.279 67.1201 318.679 74.9601C325.079 82.6401 330.999 89.8401 336.439 96.5601C341.879 103.12 346.359 108.56 349.879 112.88C353.559 117.2 355.719 119.76 356.359 120.56C356.999 121.2 357.879 122.16 358.999 123.44C360.279 124.72 361.399 125.36 362.359 125.36C363.799 125.36 364.599 123.68 364.759 120.32C364.759 118.08 364.759 113.84 364.759 107.6C364.919 101.2 364.999 93.5201 364.999 84.5601C365.159 75.4401 365.239 65.6001 365.239 55.0401C365.239 44.4801 365.239 33.6801 365.239 22.6401C365.079 19.4401 363.399 16.5601 360.199 14.0001C356.999 11.4401 354.039 9.92005 351.319 9.44006C348.599 8.96005 346.119 8.32005 343.879 7.52005C341.639 6.72005 340.519 5.76005 340.519 4.64005C340.519 3.68005 341.639 3.04005 343.879 2.72006C346.119 2.24005 348.279 2.00005 350.359 2.00005C351.959 2.00005 353.479 2.00005 354.919 2.00005C356.519 2.00005 358.039 2.00006 359.479 2.00006C361.079 2.00006 362.599 2.00006 364.039 2.00006C367.879 2.00006 370.919 2.00006 373.159 2.00006C375.399 1.84006 377.799 1.68006 380.359 1.52007C383.079 1.36006 386.839 1.28006 391.639 1.28006C393.719 1.28006 395.399 1.52006 396.679 2.00006C397.959 2.32007 398.599 2.96007 398.599 3.92007C398.599 6.16007 395.959 7.76006 390.679 8.72006C384.759 9.84006 380.839 11.2801 378.919 13.0401C376.999 14.8001 375.879 17.6801 375.559 21.6801C375.559 22.4801 375.479 25.6001 375.319 31.0401C375.319 36.4801 375.319 43.3601 375.319 51.6801C375.319 60.0001 375.239 68.9601 375.079 78.5601C375.079 88.1601 375.079 97.7601 375.079 107.36C375.079 116.8 375.079 125.28 375.079 132.8C375.079 136.64 375.159 140.16 375.319 143.36C375.639 146.4 375.879 149.04 376.039 151.28C376.199 153.36 376.279 154.96 376.279 156.08C376.279 158.64 375.719 160.24 374.599 160.88C373.639 161.68 372.519 162.08 371.239 162.08ZM415.397 159.2C413.317 159.2 411.637 158.96 410.357 158.48C409.077 158.16 408.437 157.52 408.437 156.56C408.437 154.64 411.077 153.2 416.357 152.24C422.437 151.12 426.597 149.28 428.837 146.72C431.237 144 432.437 139.68 432.437 133.76L432.437 25.7601C432.437 20.1601 431.237 16.2401 428.837 14.0001C426.597 11.6001 422.437 9.84007 416.357 8.72006C411.077 7.76007 408.437 6.16007 408.437 3.92007C408.437 2.96007 409.077 2.32007 410.357 2.00006C411.637 1.52006 413.317 1.28006 415.397 1.28006C419.717 1.28006 423.157 1.36007 425.717 1.52007C428.437 1.52007 430.997 1.60007 433.397 1.76007C435.797 1.76007 438.757 1.76007 442.277 1.76007C445.317 1.76007 447.717 1.76007 449.477 1.76007C451.397 1.60008 453.477 1.52008 455.717 1.52008C457.957 1.36007 461.237 1.28007 465.557 1.28007C467.637 1.28007 469.317 1.52007 470.597 2.00007C471.877 2.32008 472.517 2.96008 472.517 3.92008C472.517 5.04007 471.877 6.00007 470.597 6.80007C469.317 7.60008 467.317 8.24008 464.597 8.72007C458.677 9.84008 454.997 11.8401 453.557 14.7201C452.277 17.4401 451.637 21.1201 451.637 25.7601L451.637 70.6401C451.637 71.2801 451.637 72.2401 451.637 73.5201C451.797 74.6401 452.197 75.2001 452.837 75.2001C453.637 75.2001 454.677 74.7201 455.957 73.7601C457.397 72.8001 458.517 71.8401 459.317 70.8801L507.317 21.9201C508.597 20.6401 509.477 19.4401 509.957 18.3201C510.597 17.0401 510.917 15.8401 510.917 14.7201C510.917 11.8401 509.397 10.0001 506.357 9.20009C503.637 8.40009 501.717 7.68009 500.597 7.04009C499.477 6.40009 498.917 5.52008 498.917 4.40008C498.917 3.44008 499.557 2.80008 500.837 2.48009C502.117 2.00009 503.797 1.76008 505.877 1.76008L518.837 1.76009C523.477 1.76009 528.597 1.68009 534.197 1.52009C539.797 1.36009 544.837 1.20008 549.317 1.04009C553.957 0.880089 556.757 0.800091 557.717 0.800091C559.317 0.800091 560.597 1.04009 561.557 1.5201C562.517 2.00009 562.997 2.64009 562.997 3.44009C562.997 4.56009 562.357 5.52009 561.077 6.32009C559.797 7.12009 557.797 7.76009 555.077 8.2401C549.157 9.36009 542.997 11.1201 536.597 13.5201C530.197 15.9201 524.197 19.4401 518.597 24.0801C512.837 28.8801 507.477 33.6001 502.517 38.2401C497.717 42.7201 492.917 47.4401 488.117 52.4001C483.317 57.2001 478.117 62.7201 472.517 68.9601C471.557 69.9201 471.957 71.3601 473.717 73.2801L531.797 135.2C535.317 139.04 538.117 142 540.197 144.08C542.437 146.16 544.837 147.84 547.397 149.12C550.117 150.24 553.717 151.28 558.197 152.24C560.917 152.88 562.917 153.52 564.197 154.16C565.477 154.64 566.117 155.44 566.117 156.56C566.117 157.52 565.477 158.16 564.197 158.48C562.917 158.96 561.237 159.2 559.157 159.2C554.517 159.2 550.517 159.04 547.157 158.72C543.797 158.56 540.517 158.4 537.317 158.24C534.117 158.08 530.277 158 525.797 158C522.757 158 520.117 158 517.877 158C515.637 158.16 511.797 158.24 506.357 158.24C504.277 158.24 502.597 158.08 501.317 157.76C500.037 157.28 499.397 156.56 499.397 155.6C499.397 153.84 501.557 152.48 505.877 151.52C510.357 150.4 512.597 148.8 512.597 146.72C512.597 145.76 512.197 144.8 511.397 143.84C510.757 142.88 509.957 141.84 508.997 140.72L458.117 84.5601C457.157 83.6001 456.117 82.7201 454.997 81.9201C454.037 80.9601 453.237 80.4801 452.597 80.4801C451.957 80.4801 451.637 81.1201 451.637 82.4001C451.637 83.6801 451.637 84.7201 451.637 85.5201C451.637 93.0401 451.717 100.24 451.877 107.12C452.197 113.84 452.517 122 452.837 131.6C452.997 134.96 453.477 138.08 454.277 140.96C455.237 143.84 456.757 146.24 458.837 148.16C461.077 150.08 464.197 151.44 468.197 152.24C470.917 152.72 472.917 153.28 474.197 153.92C475.477 154.56 476.117 155.44 476.117 156.56C476.117 157.52 475.477 158.16 474.197 158.48C472.917 158.96 471.237 159.2 469.157 159.2C464.837 159.2 461.477 159.04 459.077 158.72C456.837 158.4 454.757 158.16 452.837 158C451.077 157.68 448.677 157.52 445.637 157.52C441.797 157.52 438.357 157.68 435.317 158C432.437 158.16 429.477 158.4 426.437 158.72C423.397 159.04 419.717 159.2 415.397 159.2Z" fill="#BFE5F7"/>
</svg>
